<?xml version="1.0" encoding="UTF-8" standalone="no"?>
<svg
   version="1.2"
   width="71.38mm"
   height="201.05mm"
   viewBox="0 0 7138 20105"
   preserveAspectRatio="xMidYMid"
   fill-rule="evenodd"
   stroke-width="28.222"
   stroke-linejoin="round"
   xml:space="preserve"
   id="svg1225"
   sodipodi:docname="4.svg"
   inkscape:version="1.2.2 (732a01da63, 2022-12-09, custom)"
   xmlns:inkscape="http://www.inkscape.org/namespaces/inkscape"
   xmlns:sodipodi="http://sodipodi.sourceforge.net/DTD/sodipodi-0.dtd"
   xmlns="http://www.w3.org/2000/svg"
   xmlns:svg="http://www.w3.org/2000/svg"
   xmlns:ooo="http://xml.openoffice.org/svg/export"><sodipodi:namedview
   id="namedview1227"
   pagecolor="#ffffff"
   bordercolor="#000000"
   borderopacity="0.25"
   inkscape:showpageshadow="2"
   inkscape:pageopacity="0.0"
   inkscape:pagecheckerboard="0"
   inkscape:deskcolor="#d1d1d1"
   inkscape:document-units="mm"
   showgrid="false"
   inkscape:zoom="1.0699142"
   inkscape:cx="135.05756"
   inkscape:cy="380.87166"
   inkscape:window-width="1846"
   inkscape:window-height="1016"
   inkscape:window-x="0"
   inkscape:window-y="0"
   inkscape:window-maximized="1"
   inkscape:current-layer="layer1" />
 <defs
   class="ClipPathGroup"
   id="defs81">
  <clipPath
   id="presentation_clip_path"
   clipPathUnits="userSpaceOnUse">
   <rect
   x="0"
   y="0"
   width="7138"
   height="20105"
   id="rect75" />
  </clipPath>
  <clipPath
   id="presentation_clip_path_shrink"
   clipPathUnits="userSpaceOnUse">
   <rect
   x="7"
   y="20"
   width="7124"
   height="20065"
   id="rect78" />
  </clipPath>
 </defs>
 <defs
   class="TextShapeIndex"
   id="defs85">
  <g
   ooo:slide="id1"
   ooo:id-list="id3 id4 id5 id6 id7 id8 id9 id10 id11 id12 id13 id14 id15 id16 id17 id18 id19 id20 id21 id22 id23 id24 id25 id26 id27 id28 id29 id30 id31 id32 id33 id34 id35 id36 id37 id38 id39 id40 id41 id42 id43 id44 id45 id46 id47 id48 id49 id50 id51 id52 id53 id54 id55 id56 id57 id58 id59 id60 id61 id62 id63 id64 id65 id66 id67 id68 id69 id70 id71 id72 id73 id74 id75 id76 id77 id78 id79 id80 id81 id82 id83 id84 id85 id86 id87 id88 id89 id90 id91 id92 id93 id94 id95 id96 id97 id98 id99 id100 id101 id102 id103 id104 id105 id106 id107 id108 id109 id110 id111 id112 id113 id114 id115 id116 id117 id118 id119 id120 id121 id122 id123 id124 id125 id126 id127 id128 id129 id130 id131 id132 id133 id134 id135 id136 id137 id138 id139 id140 id141 id142 id143 id144 id145 id146 id147 id148 id149 id150 id151 id152 id153 id154 id155 id156 id157 id158 id159"
   id="g83" />
 </defs>
 <defs
   class="EmbeddedBulletChars"
   id="defs117">
  <g
   id="bullet-char-template-57356"
   transform="scale(0.00048828125,-0.00048828125)">
   <path
   d="M 580,1141 L 1163,571 580,0 -4,571 580,1141 Z"
   id="path87" />
  </g>
  <g
   id="bullet-char-template-57354"
   transform="scale(0.00048828125,-0.00048828125)">
   <path
   d="M 8,1128 L 1137,1128 1137,0 8,0 8,1128 Z"
   id="path90" />
  </g>
  <g
   id="bullet-char-template-10146"
   transform="scale(0.00048828125,-0.00048828125)">
   <path
   d="M 174,0 L 602,739 174,1481 1456,739 174,0 Z M 1358,739 L 309,1346 659,739 1358,739 Z"
   id="path93" />
  </g>
  <g
   id="bullet-char-template-10132"
   transform="scale(0.00048828125,-0.00048828125)">
   <path
   d="M 2015,739 L 1276,0 717,0 1260,543 174,543 174,936 1260,936 717,1481 1274,1481 2015,739 Z"
   id="path96" />
  </g>
  <g
   id="bullet-char-template-10007"
   transform="scale(0.00048828125,-0.00048828125)">
   <path
   d="M 0,-2 C -7,14 -16,27 -25,37 L 356,567 C 262,823 215,952 215,954 215,979 228,992 255,992 264,992 276,990 289,987 310,991 331,999 354,1012 L 381,999 492,748 772,1049 836,1024 860,1049 C 881,1039 901,1025 922,1006 886,937 835,863 770,784 769,783 710,716 594,584 L 774,223 C 774,196 753,168 711,139 L 727,119 C 717,90 699,76 672,76 641,76 570,178 457,381 L 164,-76 C 142,-110 111,-127 72,-127 30,-127 9,-110 8,-76 1,-67 -2,-52 -2,-32 -2,-23 -1,-13 0,-2 Z"
   id="path99" />
  </g>
  <g
   id="bullet-char-template-10004"
   transform="scale(0.00048828125,-0.00048828125)">
   <path
   d="M 285,-33 C 182,-33 111,30 74,156 52,228 41,333 41,471 41,549 55,616 82,672 116,743 169,778 240,778 293,778 328,747 346,684 L 369,508 C 377,444 397,411 428,410 L 1163,1116 C 1174,1127 1196,1133 1229,1133 1271,1133 1292,1118 1292,1087 L 1292,965 C 1292,929 1282,901 1262,881 L 442,47 C 390,-6 338,-33 285,-33 Z"
   id="path102" />
  </g>
  <g
   id="bullet-char-template-9679"
   transform="scale(0.00048828125,-0.00048828125)">
   <path
   d="M 813,0 C 632,0 489,54 383,161 276,268 223,411 223,592 223,773 276,916 383,1023 489,1130 632,1184 813,1184 992,1184 1136,1130 1245,1023 1353,916 1407,772 1407,592 1407,412 1353,268 1245,161 1136,54 992,0 813,0 Z"
   id="path105" />
  </g>
  <g
   id="bullet-char-template-8226"
   transform="scale(0.00048828125,-0.00048828125)">
   <path
   d="M 346,457 C 273,457 209,483 155,535 101,586 74,649 74,723 74,796 101,859 155,911 209,963 273,989 346,989 419,989 480,963 531,910 582,859 608,796 608,723 608,648 583,586 532,535 482,483 420,457 346,457 Z"
   id="path108" />
  </g>
  <g
   id="bullet-char-template-8211"
   transform="scale(0.00048828125,-0.00048828125)">
   <path
   d="M -4,459 L 1135,459 1135,606 -4,606 -4,459 Z"
   id="path111" />
  </g>
  <g
   id="bullet-char-template-61548"
   transform="scale(0.00048828125,-0.00048828125)">
   <path
   d="M 173,740 C 173,903 231,1043 346,1159 462,1274 601,1332 765,1332 928,1332 1067,1274 1183,1159 1299,1043 1357,903 1357,740 1357,577 1299,437 1183,322 1067,206 928,148 765,148 601,148 462,206 346,322 231,437 173,577 173,740 Z"
   id="path114" />
  </g>
 </defs>
 
 <g
   inkscape:groupmode="layer"
   id="layer1"
   inkscape:label="Layer 1"><path
     fill="rgb(255,245,206)"
     stroke="none"
     d="M 4105,5087 C 4077,5029 4115,4972 4106,4895 4118,4876 4126,4852 4143,4836 4190,4806 4236,4775 4258,4721 4279,4724 4297,4716 4331,4685 4332,4673 4329,4665 4324,4659 4392,4641 4486,4573 4540,4513 4601,4511 4645,4422 4744,4435 4709,4458 4700,4474 4702,4498 L 4694,4498 C 4550,4596 4327,4681 4306,4861 4393,4827 4425,4742 4494,4685 4560,4632 4653,4609 4716,4550 4717,4554 4718,4557 4719,4560 4833,4579 4839,4488 4932,4485 4927,4551 4846,4541 4807,4573 4807,4578 4807,4582 4808,4585 L 4807,4585 C 4662,4696 4451,4805 4419,4986 4499,4928 4558,4851 4632,4786 4695,4730 4777,4687 4832,4620 4859,4640 4900,4645 4919,4673 4884,4692 4875,4709 4877,4727 4714,4841 4520,4924 4481,5162 4585,5154 4591,5045 4644,4986 4718,4905 4834,4869 4908,4788 4920,4809 4932,4833 4932,4861 4776,4989 4537,5211 4456,5400 4448,5418 4473,5458 4469,5475 4458,5513 4393,5582 4368,5638 4336,5711 4321,5786 4293,5826 4225,5924 4102,5951 4005,6026 3896,6111 3838,6252 3736,6339 3713,6205 3674,6020 3638,5872 3647,5868 3657,5866 3667,5863 3829,5657 3938,5400 4018,5112 4045,5101 4060,5079 4105,5087 Z M 4869,5061 C 4856,5105 4865,5126 4882,5139 4881,5142 4881,5145 4882,5149 4877,5206 4840,5300 4832,5387 4828,5432 4816,5499 4833,5543 4828,5545 4824,5548 4819,5550 4814,5904 4814,6262 4519,6327 4508,6162 4368,6060 4419,5876 4458,5975 4448,6003 4556,6038 4576,5966 4505,5883 4506,5788 4711,5629 4700,5256 4869,5061 Z M 4507,3259 C 4509,3262 4512,3265 4514,3269 4422,3311 4347,3370 4295,3451 4293,3443 4289,3436 4282,3434 4234,3473 4177,3505 4144,3559 4146,3560 4147,3561 4149,3563 4080,3579 4010,3625 3938,3643 3935,3640 3933,3637 3931,3634 3927,3638 3923,3643 3920,3647 L 3919,3647 C 3805,3630 3683,3577 3588,3549 3592,3540 3594,3531 3593,3522 3588,3478 3444,3384 3380,3296 3307,3195 3289,3054 3242,2945 3318,2844 3346,2741 3380,2582 3405,2565 3440,2558 3468,2545 3579,2309 3767,2151 4006,2044 4248,2058 4660,1964 4858,1893 4909,2106 5007,2270 5071,2470 5044,2502 5023,2544 5001,2587 4956,2525 4850,2522 4745,2520 L 4745,2570 C 4831,2572 4909,2623 4979,2633 4957,2674 4935,2714 4906,2744 4847,2607 4631,2597 4532,2682 4421,2779 4454,2979 4370,3083 4353,3085 4334,3080 4316,3076 4318,3071 4319,3065 4319,3058 4256,3029 4213,2981 4132,2970 L 4132,2971 C 4105,3062 4200,3135 4294,3146 4293,3142 4292,3138 4292,3135 4329,3150 4385,3147 4420,3133 4515,3014 4471,2804 4595,2720 4696,2651 4775,2710 4869,2774 4847,2787 4823,2794 4795,2795 4727,2796 4705,2719 4608,2733 4598,2809 4632,2842 4658,2883 4692,2894 4746,2887 4770,2908 4749,3091 4614,3160 4507,3259 Z M 3518,3734 C 3482,3679 3519,3636 3553,3597 3632,3649 3752,3690 3871,3699 3844,3730 3819,3764 3806,3809 3811,3812 3816,3814 3821,3816 3751,3884 3696,4029 3756,4084 3796,4016 3856,3925 3868,3837 3928,3867 3974,3904 3994,3997 3874,4161 3492,4119 3343,4009 3390,3906 3364,3730 3518,3734 Z"
     id="path126" /><path
     fill="rgb(255,0,0)"
     stroke="none"
     d="M 1815,19940 C 1687,19944 1540,19927 1457,19975 1368,19958 1235,19969 1154,19966 1154,19942 1162,19916 1164,19889 1223,19885 1295,19870 1340,19835 1340,19841 1339,19847 1339,19853 1759,19768 2095,19599 2429,19427 2544,19115 2831,18846 2767,18437 L 2692,18437 C 2626,18500 2618,18582 2579,18675 2551,18742 2488,18798 2466,18851 2458,18872 2476,18906 2466,18926 2436,18983 2366,19053 2316,19114 2183,19275 2155,19360 1978,19465 1906,19507 1825,19567 1765,19590 1613,19646 1428,19641 1316,19775 1262,19774 1194,19792 1152,19826 1215,19707 1341,19651 1437,19566 1503,19583 1603,19559 1656,19509 1657,19516 1660,19522 1664,19527 1744,19527 1781,19485 1815,19439 1804,19440 1796,19439 1789,19435 1909,19414 2003,19304 2052,19184 2154,19181 2206,19033 2253,18951 2319,18838 2413,18752 2403,18650 2396,18651 2390,18652 2385,18653 2437,18580 2441,18475 2466,18387 2670,17659 2705,16677 2740,15819 2746,15822 2754,15823 2767,15820 2761,15575 2792,15334 2817,15081 2830,14935 2873,14769 2818,14650 2879,14614 2904,14531 2942,14479 2984,14421 3047,14372 3078,14305 3095,14312 3109,14319 3117,14329 3120,14725 3119,15195 3092,15569 3039,16298 3154,17055 3080,17711 3072,17781 3047,17843 3042,17911 3023,18181 3059,18488 3004,18725 2965,18900 2827,19027 2829,19214 2729,19318 2682,19476 2566,19565 2532,19549 2497,19534 2441,19540 2419,19552 2423,19566 2425,19581 2353,19544 2220,19579 2178,19627 2215,19632 2279,19629 2338,19623 2292,19633 2244,19653 2235,19689 2147,19680 2042,19773 1965,19803 2033,19874 2164,19788 2242,19729 2341,19793 2443,19722 2554,19715 2814,19699 3095,19904 3293,19740 3225,19674 3090,19675 3017,19615 3008,19314 3239,19090 3230,18788 3390,18598 3315,18334 3330,18037 3336,17921 3373,17805 3380,17686 3402,17336 3294,17035 3280,16709 3255,16138 3291,15580 3330,15068 3371,14528 3278,13998 3606,13803 3598,14029 3573,14359 3590,14533 3583,14536 3577,14540 3581,14554 3608,14716 3515,14942 3593,15030 3621,14924 3654,14693 3626,14569 3681,14574 3675,14446 3718,14467 3714,15092 3740,15737 3718,16383 3713,16529 3675,16674 3668,16822 3656,17094 3668,17310 3656,17573 3649,17723 3601,17883 3606,18012 3607,18050 3638,18082 3643,18124 3665,18309 3638,18550 3568,18688 3542,18609 3546,18502 3518,18425 3509,18425 3502,18426 3497,18429 3505,18256 3488,17982 3480,17836 L 3430,17836 C 3407,17926 3412,18078 3418,18162 3424,18252 3402,18388 3442,18452 3438,18452 3434,18451 3430,18450 3412,18666 3376,19073 3568,19089 3824,19109 3730,18543 3743,18312 3757,18077 3818,17835 3831,17598 3845,17342 3806,17038 3869,16834 3960,17110 3961,17475 3980,17824 3984,17825 3987,17826 3991,17827 3972,17944 3987,18067 3980,18212 3976,18315 3946,18540 4000,18631 3994,18634 3987,18636 3980,18638 3993,18680 3957,18771 3997,18786 3980,18879 3955,19032 3979,19121 3975,19119 3972,19116 3968,19114 3935,19167 3923,19241 3919,19321 3880,19365 3854,19450 3841,19515 3833,19511 3825,19507 3819,19502 3780,19567 3744,19636 3656,19652 3503,19488 3383,19290 3330,19026 3313,19027 3303,19020 3293,19013 L 3293,19014 C 3237,19154 3283,19374 3280,19540 3352,19630 3486,19659 3518,19790 3496,19838 3422,19875 3397,19915 3362,19928 3327,19945 3293,19953 3249,19962 3188,19957 3142,19969 L 3142,19966 C 2973,19935 2804,19923 2616,19941 2616,19948 2619,19954 2621,19960 2433,19912 2182,19926 1978,19940 1928,19944 1857,19930 1814,19948 1814,19945 1815,19942 1815,19940 Z M 2115,18588 C 2102,18586 2093,18587 2086,18590 2162,18014 2226,17407 2253,16797 2258,16670 2297,16466 2246,16361 2252,16356 2259,16352 2266,16346 2222,16206 2278,16100 2291,16008 2310,15869 2273,15717 2303,15607 2334,15495 2432,15392 2491,15306 2563,15202 2610,15084 2692,15031 2680,15250 2636,15557 2684,15774 2682,15776 2680,15779 2679,15782 2623,16284 2630,16824 2579,17335 2539,17726 2475,18082 2391,18387 2372,18456 2317,18559 2326,18632 2319,18629 2312,18626 2303,18625 2254,18698 2224,18855 2153,18863 2121,18791 2136,18671 2115,18588 Z M 663,17962 L 663,17961 C 693,17811 856,17703 888,17548 901,17673 903,18002 850,18149 934,18570 660,18963 775,19414 740,19487 681,19537 600,19565 597,19310 602,19070 625,18826 635,18719 676,18595 663,18513 661,18500 626,18464 625,18450 620,18371 655,18263 663,18162 668,18089 652,18014 663,17962 Z M 938,19966 C 941,19969 945,19973 950,19976 735,19971 479,19996 293,19965 315,19935 340,19908 350,19865 L 475,19865 C 654,19660 993,19559 1063,19227 1106,19025 1103,18798 1113,18563 1128,18236 1150,17901 1176,17586 1191,17405 1224,17235 1219,17077 1294,17075 1372,16982 1439,16947 1446,16937 1463,16935 1480,16935 1476,16942 1471,16950 1464,16959 1461,17891 1402,18768 1151,19452 1297,19439 1369,19352 1502,19327 1517,18514 1570,17633 1639,16836 1682,16814 1724,16790 1759,16759 1786,17100 1832,17586 1815,17961 1822,17960 1829,17959 1835,17960 1800,18220 1760,18522 1733,18760 1727,18753 1722,18744 1715,18738 1664,18864 1668,19106 1690,19264 1629,19295 1625,19383 1602,19452 1618,19448 1628,19449 1636,19453 1570,19472 1484,19502 1416,19529 1416,19519 1419,19510 1427,19502 1087,19509 902,19671 650,19765 640,19809 669,19813 663,19853 796,19853 970,19749 1076,19840 1038,19890 951,19891 938,19966 Z M 2015,18614 C 2016,18807 2018,19001 2003,19177 1949,19277 1852,19334 1777,19412 L 1777,19403 C 1806,19219 1782,18981 1790,18777 1785,18779 1780,18779 1776,18780 1824,18720 1826,18606 1840,18514 1860,18383 1866,18243 1877,18125 1882,18081 1901,18029 1899,17987 1900,17987 1901,17988 1902,17988 2004,17595 1889,17106 1890,16661 1885,16658 1881,16655 1876,16653 1966,16590 2050,16521 2109,16428 2111,16430 2113,16432 2115,16435 2142,16408 2166,16399 2191,16389 2187,16615 2188,16831 2178,17048 2159,17473 2075,17871 2040,18263 2031,18373 1995,18529 2047,18616 2039,18618 2029,18618 2015,18614 Z M 4809,19716 C 4546,19796 4188,19783 3938,19877 3841,19878 3734,19931 3619,19929 3590,19928 3559,19920 3528,19913 3671,19837 3823,19713 4020,19691 4195,19671 4372,19704 4508,19603 4355,19494 4094,19592 3907,19603 3920,19576 3918,19560 3908,19549 3962,19506 3978,19426 3996,19348 4000,19350 4003,19351 4007,19353 4022,19284 4086,19224 4061,19148 4104,19050 4058,18896 4079,18781 4155,18725 4206,18532 4258,18476 4336,18553 4338,18705 4383,18814 4276,19005 4090,19179 4082,19428 4306,19426 4475,19370 4684,19353 4709,19490 4815,19547 4809,19716 Z M 4207,18300 C 4155,18371 4123,18488 4072,18564 4067,18534 4058,18502 4057,18475 4049,18286 4089,18047 4061,17870 4155,17968 4139,18176 4207,18300 Z M 3644,5137 C 3514,4911 3466,4603 3314,4399 3325,4307 3265,4238 3254,4138 3486,4235 3773,4248 4057,4172 4107,4338 4188,4474 4183,4696 4121,4733 4067,4787 4044,4849 3934,4905 3910,5116 3819,5149 3800,4972 3812,4764 3757,4623 3625,4700 3726,5010 3644,5137 Z M 3455,6013 C 3502,5976 3539,5928 3590,5895 3592,5976 3613,6074 3631,6164 3644,6232 3655,6330 3702,6364 3695,6368 3688,6372 3680,6377 3744,6573 3623,6803 3493,6839 3469,6574 3424,6296 3455,6013 Z M 4570,6879 C 4573,6880 4577,6881 4580,6883 4526,6921 4486,7040 4484,7124 4471,7118 4461,7108 4457,7092 4394,6905 4323,6725 4319,6478 4524,6565 4620,6373 4770,6328 4702,6510 4626,6685 4570,6879 Z M 4083,7592 L 4102,7592 C 4094,7651 4080,7728 4090,7778 4064,7914 4041,8054 3970,8144 3905,8066 3989,7972 3995,7893 4000,7832 3970,7755 3970,7680 3970,7587 4015,7498 4007,7430 4002,7380 3954,7340 3945,7292 3910,7115 3993,6952 4007,6778 4091,6991 4049,7329 4083,7592 Z M 4182,7793 C 4179,7790 4175,7787 4171,7785 4192,7731 4190,7644 4175,7586 4259,7297 4169,6958 4169,6653 4275,6731 4231,6958 4282,7091 4290,7093 4296,7095 4302,7097 4290,7182 4280,7316 4314,7381 4308,7385 4301,7389 4294,7392 4298,7609 4239,7762 4207,7943 4160,7932 4190,7843 4182,7793 Z M 4408,7291 C 4394,7309 4379,7326 4363,7342 4372,7278 4356,7182 4349,7112 4358,7114 4369,7115 4383,7115 4387,7178 4417,7215 4408,7291 Z M 3568,7491 C 3542,7220 3676,7008 3756,6802 3771,6800 3778,6805 3781,6815 3735,6990 3739,7215 3631,7328 3631,7404 3635,7483 3568,7491 Z M 3743,8042 C 3682,7799 3764,7456 3793,7203 3814,7200 3815,7215 3831,7216 3884,7528 3750,7749 3743,8042 Z"
     id="path133" /><path
     fill="rgb(42,96,153)"
     stroke="none"
     d="M 3504,1879 L 3504,1878 C 3549,1769 3638,1703 3692,1603 3643,1560 3600,1637 3567,1603 3606,1488 3675,1402 3792,1365 3786,1326 3810,1316 3818,1290 3677,1325 3576,1400 3454,1453 3262,1686 3232,2045 3166,2430 3127,2660 3082,2896 3066,3119 2965,3197 2970,3382 2941,3532 2952,3533 2960,3535 2968,3536 2933,3642 2926,3834 2991,3908 3035,3839 2983,3649 3012,3536 3029,3532 3040,3522 3066,3507 3078,3725 3113,3920 3166,4096 3170,4098 3173,4099 3177,4101 3147,4176 3187,4326 3246,4396 3241,4397 3235,4397 3229,4397 3338,4810 3460,5276 3492,5724 3407,5729 3318,5752 3266,5699 3281,5672 3320,5669 3304,5612 3291,5536 3275,5441 3241,5361 3213,5293 3163,5188 3116,5211 3055,5406 3227,5542 3216,5687 3177,5693 3172,5664 3129,5674 3074,5499 3010,5314 2941,5123 2889,4979 2795,4845 2754,4710 2742,4672 2755,4633 2741,4597 2707,4502 2602,4417 2579,4309 2568,4261 2587,4210 2579,4159 2568,4091 2524,4031 2516,3958 2502,3839 2545,3715 2494,3590 2543,3526 2559,3391 2554,3319 L 2516,3319 C 2511,3392 2449,3494 2460,3566 2416,3553 2415,3619 2378,3658 2285,3753 2163,3847 2040,3883 2056,4025 2195,4035 2278,4108 2346,4168 2420,4281 2466,4359 2650,4671 2791,5080 2866,5497 2671,5345 2570,5100 2316,5010 2414,5267 2562,5474 2616,5774 2367,5680 1788,5477 1652,5812 1804,5818 1990,5792 2090,5850 2001,6006 1791,6043 1765,6263 1907,6251 1972,6162 2115,6150 2010,6341 1904,6532 1777,6700 1776,6863 1658,6980 1602,7139 1556,7268 1547,7478 1527,7665 1501,7908 1469,8157 1489,8304 1409,8999 1404,9885 1464,10596 1468,10655 1468,10762 1523,10804 1504,10909 1465,11121 1539,11184 1576,11102 1573,10929 1566,10821 L 1577,10821 C 1643,9974 1573,8989 1702,8203 1711,8167 1770,8179 1765,8128 1786,7898 1790,7590 1827,7414 1868,7225 1882,6967 1952,6800 1976,6744 2025,6687 2053,6625 2150,6412 2197,6399 2353,6250 2413,6193 2454,6105 2516,6062 2538,6047 2570,6055 2591,6037 2640,5997 2672,5930 2716,5900 2738,5885 2778,5884 2816,5862 2969,5776 3028,5699 3204,5812 2933,5975 2740,6215 2566,6476 2427,6804 2247,7091 2215,7527 2222,7526 2229,7525 2236,7525 2205,7671 2145,7839 2153,7978 2232,7879 2254,7667 2273,7533 2284,7538 2293,7545 2303,7552 2353,7452 2368,7317 2441,7239 2521,7359 2433,7518 2441,7677 2451,7675 2459,7675 2466,7676 L 2466,7690 C 2433,7860 2429,8128 2428,8329 2428,8371 2382,8457 2453,8466 2499,8246 2493,7917 2502,7689 2506,7690 2510,7690 2516,7690 2614,7592 2545,7327 2654,7239 2657,7478 2719,7709 2704,7953 2698,8053 2668,8151 2666,8253 2664,8495 2723,8750 2741,9005 2770,9398 2723,9707 2741,10107 2761,10543 2755,11021 2804,11410 2860,11862 2847,12266 2792,12687 2893,12646 2899,12531 2941,12449 2984,12365 3046,12294 3104,12211 3306,11921 3434,11656 3367,11172 3337,10957 3228,10720 3204,10483 3197,10416 3211,10357 3204,10295 3195,10218 3154,10145 3141,10070 3105,9859 3118,9639 3079,9431 3067,9369 3030,9314 3016,9255 2986,9125 2987,8959 2966,8805 2944,8647 2909,8495 2903,8354 2886,7969 2969,7537 2916,7176 2922,7137 2854,7172 2866,7126 2791,6682 2895,6317 3079,6063 3206,6040 3272,5888 3354,5862 3298,5950 3310,6139 3317,6275 3361,7259 3689,8206 3805,9155 3823,9299 3893,9436 3905,9581 3942,10011 4077,10344 4156,10721 4161,10721 4165,10720 4169,10719 4162,10771 4177,10843 4207,10890 4230,11035 4232,11201 4306,11297 4314,11295 4320,11293 4326,11290 4496,11748 4285,12128 4068,12387 4031,12432 3970,12468 3943,12520 3875,12501 3852,12607 3805,12637 3808,12645 3810,12654 3813,12664 3726,12734 3604,12835 3581,12939 3564,12920 3548,12898 3554,12863 3561,12828 3614,12838 3617,12800 3700,12620 3824,12481 3980,12374 4118,12118 4476,11800 4256,11422 3738,11392 3633,11776 3379,12011 3389,12083 3341,12099 3329,12149 3332,12151 3334,12153 3336,12155 3280,12181 3235,12256 3224,12318 3218,12316 3212,12314 3204,12312 3098,12503 2952,12653 2866,12863 2869,12865 2872,12867 2875,12868 2753,13055 2613,13317 2613,13544 2607,13541 2599,13540 2591,13539 2479,13675 2490,13973 2403,14153 2270,14428 1994,14569 1765,14729 1819,14131 1798,13522 1827,12875 1848,12419 1907,11901 1815,11585 1802,11585 1800,11575 1790,11573 1789,11565 1788,11558 1777,11560 L 1777,11561 C 1700,12357 1677,13284 1690,14090 1692,14231 1684,14335 1690,14441 1698,14585 1649,14711 1652,14829 1658,15044 1804,15152 1877,15368 1900,15435 1892,15528 1940,15580 1939,15584 1939,15588 1940,15593 1947,15794 1908,15920 1840,16032 1807,16086 1736,16129 1716,16189 1709,16185 1700,16182 1690,16182 1630,16285 1530,16347 1489,16470 1491,16470 1492,16471 1494,16471 1367,16636 1213,16776 1136,16991 1129,16988 1122,16985 1113,16984 850,17485 445,17843 387,18549 386,18550 386,18551 386,18552 376,18425 332,18292 324,18136 312,17899 381,17650 369,17448 374,17452 380,17456 387,17459 478,17112 432,16627 462,16219 485,16165 474,16066 475,15994 475,15923 489,15827 472,15769 L 475,15769 C 467,15503 534,15000 469,14810 491,14746 475,14640 475,14553 475,14474 489,14380 474,14316 L 475,14316 C 493,14274 511,14213 487,14165 472,14164 462,14166 453,14169 502,13233 375,12221 350,11297 346,11164 362,11023 322,10934 330,10933 339,10933 349,10934 325,10683 401,10414 349,10170 339,10120 306,10080 299,10032 282,9904 310,9751 299,9606 284,9402 246,9201 262,9017 277,8830 340,8649 349,8466 360,8255 340,8049 349,7840 367,7459 467,7102 537,6775 742,6501 833,6112 1051,5849 1048,5730 1134,5699 1151,5599 1113,5583 1087,5642 1076,5611 1133,5481 1228,5387 1289,5261 1211,5246 1219,5383 1151,5336 1171,5156 1308,5092 1339,4923 1264,4927 1250,5059 1201,5048 1204,5000 1240,4987 1251,4948 1224,4940 1211,4983 1214,4935 1248,4820 1285,4706 1339,4609 1268,4616 1320,4570 1339,4559 1311,4564 1304,4556 1301,4534 1287,4406 1486,4264 1489,4121 1577,4067 1664,4012 1715,3921 1703,3921 1694,3918 1687,3913 1878,3806 2043,3649 2190,3482 2244,3421 2320,3387 2366,3332 2443,3238 2466,3104 2553,3017 2559,3016 2563,3014 2567,3011 2591,3094 2504,3217 2604,3219 2664,3164 2668,3044 2635,2979 2637,2980 2639,2980 2641,2981 2605,2762 2674,2570 2666,2342 L 2637,2342 C 2696,2157 2735,1989 2828,1829 3056,1440 3614,1007 4206,1040 4548,1058 4901,1303 5070,1491 5096,1519 5116,1575 5153,1602 5147,1603 5140,1603 5133,1603 5135,1663 5164,1697 5183,1741 5191,1737 5198,1734 5205,1730 5252,1848 5297,1934 5308,2054 5349,2523 5045,2825 4907,3144 4880,3206 4816,3306 4831,3388 4827,3386 4824,3384 4820,3382 4755,3505 4735,3673 4694,3820 4699,3821 4704,3823 4709,3825 4655,3987 4613,4202 4617,4394 4605,4397 4593,4399 4580,4401 4576,4384 4571,4365 4569,4346 4561,4237 4618,4079 4594,3982 4657,3636 4765,3335 4870,3031 5121,2771 5418,2127 5120,1741 5041,1720 4974,1687 4920,1641 4088,1600 3650,2123 3254,2518 3389,2219 3615,2011 3805,1766 3651,1750 3599,1835 3504,1879 Z M 5309,19376 C 5262,19425 5276,19443 5304,19462 5255,19550 5167,19598 5106,19673 5036,19608 4954,19555 4883,19489 4870,19388 4762,19323 4720,19226 4706,19193 4710,19148 4695,19113 4667,19045 4605,18989 4570,18912 4503,18765 4445,18557 4370,18374 4290,18182 4200,17945 4194,17798 4193,17753 4212,17714 4207,17672 4201,17622 4167,17573 4157,17522 4065,17069 4028,16560 3994,16033 4012,15985 3938,16030 3956,15982 3932,15589 3941,15176 3956,14780 3977,14216 3954,13640 3956,13102 3957,12920 4035,12734 3972,12562 4092,12510 4190,12363 4269,12237 4446,11959 4532,11644 4394,11279 4398,11280 4402,11282 4407,11285 4391,11125 4356,10984 4291,10873 4289,10815 4263,10754 4250,10695 4252,10696 4254,10696 4257,10697 4258,10515 4154,10325 4144,10121 4120,9628 4150,8981 4207,8518 4226,8357 4229,8192 4257,8079 4293,7929 4385,7790 4432,7641 4483,7478 4516,7315 4557,7152 4556,7151 4554,7150 4553,7150 4600,7096 4613,7010 4638,6936 4647,6939 4657,6940 4670,6939 4762,6651 4874,6384 4933,6063 5255,6193 5053,6749 5133,7127 5148,7197 5188,7247 5196,7303 5207,7382 5191,7474 5196,7553 5212,7786 5268,8008 5259,8242 5250,8467 5216,8711 5234,8956 5262,9348 5278,9745 5296,10146 5323,10734 5307,11322 5359,11887 5389,12217 5413,12561 5396,12939 5375,13433 5363,13871 5284,14254 5250,14418 5245,14585 5221,14743 5185,14977 5136,15212 5083,15432 5065,15509 5028,15570 5008,15645 4953,15849 5000,16064 4870,16232 L 4870,16357 C 4834,16392 4816,16445 4783,16483 4766,16645 4748,16753 4733,16921 4721,17045 4665,17152 4632,17272 4580,17466 4611,17682 4595,17886 4571,18181 4602,18450 4670,18712 4713,18880 4773,19048 4858,19176 4916,19167 4901,19086 4921,19038 5107,18845 5350,18601 5259,18211 5109,18333 5036,18598 4896,18687 4759,18318 4869,17807 5021,17535 5100,17702 5106,17942 5159,18136 5312,17986 5244,17647 5296,17422 5217,17323 5284,17187 5284,17084 5284,16657 5259,16171 5321,15707 5415,15017 5400,14274 5497,13590 5508,13513 5539,13441 5547,13365 5600,12815 5510,12224 5484,11649 5441,10702 5499,9713 5509,8806 5599,8549 5488,8093 5509,7741 5527,7445 5444,7160 5396,6889 5353,6643 5298,6417 5234,6225 5394,6328 5493,6577 5534,6814 5557,6944 5518,7134 5684,7152 5772,7012 5679,6757 5710,6551 5664,6430 5546,6383 5487,6276 5497,6274 5509,6272 5522,6275 5591,6302 5639,6350 5722,6363 5831,6402 5804,6577 5867,6662 5865,6662 5862,6663 5860,6663 5867,6921 5767,7176 5747,7440 5732,7646 5780,7858 5772,8079 5765,8297 5772,8513 5772,8730 5776,9916 5737,11288 5835,12425 5862,12746 5772,13094 5772,13440 5772,14049 5810,14685 5785,15231 5775,15447 5772,15646 5797,15920 5815,16110 5812,16312 5822,16482 5830,16602 5873,16678 5885,16758 5918,16969 5903,17228 5923,17447 5930,17530 5967,17612 5960,17685 5949,17794 5856,17856 5847,17985 5693,18163 5505,18346 5409,18587 5360,18710 5350,18847 5259,18950 5116,19012 4893,19091 4896,19263 4898,19452 5140,19486 5309,19376 Z M 5059,4347 C 5060,4338 5064,4332 5068,4326 5093,4406 5165,4474 5239,4521 5209,4620 5360,4718 5385,4823 5471,5209 5175,5585 5084,5851 5070,5688 5169,5579 5134,5437 5024,5448 5035,5580 4972,5638 4959,5563 4937,5528 4895,5527 4919,5413 4948,5281 4949,5167 4952,5169 4956,5171 4959,5174 4968,4942 5062,4829 5047,4598 5025,4537 4959,4539 4997,4448 4903,4449 4868,4393 4821,4348 4757,4370 4708,4380 4663,4388 4693,4318 4695,4220 4709,4134 4724,4035 4745,3933 4754,3850 4896,3953 4910,4232 5059,4347 Z M 5781,6269 C 5839,6295 5900,6335 5957,6331 6016,6435 6061,6576 6072,6751 6079,6861 6049,7013 6109,7093 6054,7162 6084,7301 6084,7402 6084,7799 6109,8200 6109,8592 6109,9108 5991,9615 5959,10070 5967,10078 5973,10087 5979,10096 5929,10256 5919,10483 5905,10662 5900,10675 5893,10686 5884,10697 5886,10353 5903,9970 5909,9569 5913,9296 5960,9015 5934,8780 5918,8634 5857,8494 5859,8354 5860,8231 5906,8094 5921,7966 5972,7540 5940,7092 5934,6640 L 5934,6638 C 5933,6631 5932,6624 5921,6626 L 5922,6626 C 5914,6648 5893,6657 5867,6662 5880,6679 5898,6693 5922,6701 5929,6681 5932,6661 5934,6640 5944,6506 5862,6348 5771,6288 5773,6282 5777,6275 5781,6269 Z M 5696,6251 C 5716,6249 5737,6253 5758,6261 5754,6279 5748,6294 5721,6289 5643,6256 5567,6185 5459,6204 5458,6203 5458,6202 5458,6201 5291,6191 5095,6117 5070,5926 5358,5767 5428,5391 5546,5061 5541,5157 5617,5227 5633,5325 5657,5463 5570,5591 5592,5685 5521,5835 5371,5906 5320,6076 5409,6098 5457,5974 5508,5913 5551,5862 5624,5807 5638,5740 5689,5734 5705,5624 5746,5588 5766,5700 5751,5819 5708,5913 5674,5990 5577,6043 5596,6089 5700,6126 5698,5949 5821,5963 5858,6096 5733,6154 5696,6251 Z M 7011,19912 C 6995,19928 6979,19945 6974,19975 6935,19975 6891,19989 6861,19990 6509,20000 6092,19988 5801,19955 5808,19912 5807,19871 5785,19827 5808,19775 5879,19770 5872,19689 5744,19716 5662,19896 5534,19965 5544,19965 5551,19970 5554,19977 5374,20022 5217,19952 5131,19846 5136,19844 5141,19842 5146,19839 5121,19775 5099,19767 5158,19726 5155,19723 5153,19720 5150,19717 5245,19687 5312,19593 5360,19500 5435,19472 5432,19392 5459,19326 5483,19266 5540,19201 5559,19138 5578,19079 5555,19020 5584,18962 5613,18907 5684,18884 5747,18837 5808,18791 5855,18727 5898,18699 6000,18631 6153,18579 6260,18549 6291,18540 6358,18558 6379,18518 6468,18512 6493,18593 6546,18615 6546,18654 6560,18695 6560,18737 6559,18893 6432,18991 6385,19125 6252,19197 6101,19250 6109,19463 6343,19296 6608,19160 6673,18825 6777,18914 6910,18963 6861,19175 6453,19253 6223,19539 5984,19764 5947,19799 5862,19821 5885,19889 6121,19850 6214,19668 6422,19601 6529,19491 6633,19377 6836,19363 6858,19656 6620,19690 6460,19802 6466,19801 6470,19801 6473,19803 6373,19809 6239,19837 6197,19914 6280,19917 6412,19899 6484,19844 6486,19854 6489,19862 6498,19864 6604,19829 6726,19886 6848,19877 L 6849,19876 C 6900,19890 6956,19900 7011,19912 Z"
     id="path140" /><path
     fill="rgb(114,159,207)"
     stroke="none"
     d="M 1901,3669 C 1883,3684 1864,3698 1844,3712 L 1985,3594 C 1958,3620 1930,3645 1901,3669 Z"
     id="path147" /><path
     fill="rgb(114,159,207)"
     stroke="none"
     d="M 1662,3886 C 1659,3882 1656,3878 1653,3874 L 1682,3849 C 1674,3861 1667,3873 1662,3886 Z"
     id="path154" /><path
     fill="rgb(114,159,207)"
     stroke="none"
     d="M 2414,19614 C 2409,19614 2402,19614 2394,19615 2403,19613 2411,19612 2418,19610 2417,19611 2416,19613 2414,19614 Z"
     id="path161" /><path
     fill="rgb(255,245,206)"
     stroke="none"
     d="M 4756,2843 C 4691,2849 4656,2826 4656,2768 4711,2771 4745,2796 4756,2843 Z"
     id="path168" /><path
     fill="rgb(255,255,0)"
     stroke="none"
     d="M 6146,2692 C 6149,2691 6153,2691 6156,2690 6021,3251 5705,3658 5307,3932 5269,3958 5201,3975 5171,4020 5166,4016 5162,4012 5157,4007 5122,4043 5083,4073 5044,4070 4962,4063 4954,3965 4933,3893 5055,3882 5149,3793 5232,3732 5655,3420 6036,2946 5983,2216 5955,1834 5805,1493 5582,1227 4923,435 3362,278 2590,1051 2204,1437 1830,2336 2202,2968 2245,3041 2329,3095 2352,3193 2335,3256 2298,3298 2252,3331 1834,2952 1796,2135 2002,1615 2096,1375 2256,1158 2452,977 2457,981 2461,985 2465,989 2474,978 2474,969 2468,962 2670,779 2908,634 3154,538 4291,95 5435,620 5908,1364 5966,1455 5992,1571 6066,1654 6058,1656 6051,1659 6046,1665 6077,1726 6085,1809 6133,1853 L 6134,1852 C 6142,1935 6173,2026 6217,2091 6210,2091 6203,2091 6196,2091 6209,2321 6169,2498 6146,2692 Z"
     id="path175" /><path
     fill="rgb(114,159,207)"
     stroke="none"
     d="M 3016,2255 L 2979,2255 C 2896,2358 2953,2490 2916,2605 2905,2639 2853,2666 2841,2706 2833,2731 2849,2761 2841,2781 2834,2795 2798,2804 2791,2818 2735,2931 2781,3078 2716,3207 2720,3208 2723,3210 2726,3212 2655,3246 2631,3378 2628,3475 2621,3472 2613,3470 2603,3470 L 2603,3469 C 2602,3549 2541,3626 2590,3682 2591,3682 2593,3682 2594,3682 2583,3750 2607,3845 2659,3876 2639,3969 2674,4129 2728,4209 2780,4284 2893,4278 2916,4334 2960,4453 3040,4535 3104,4634 3093,4241 2883,4047 2710,3817 2699,3761 2678,3698 2662,3640 2669,3640 2678,3641 2690,3645 2682,3582 2712,3558 2703,3495 2701,3495 2698,3496 2696,3496 2725,3447 2716,3360 2740,3307 2750,3289 2768,3279 2779,3263 2783,3265 2787,3267 2791,3269 2944,3096 3000,2827 3054,2555 3006,2470 3009,2371 3016,2255 Z"
     id="path182" /><path
     fill="rgb(114,159,207)"
     stroke="none"
     d="M 4292,2468 C 4287,2468 4283,2468 4279,2469 4259,2357 4008,2290 3954,2430 3984,2522 4071,2557 4174,2575 4171,2581 4169,2587 4167,2593 4203,2620 4279,2603 4305,2580 4302,2541 4313,2488 4292,2468 Z"
     id="path189" /><path
     fill="rgb(255,245,206)"
     stroke="none"
     d="M 4205,2493 C 4203,2500 4201,2507 4199,2513 4140,2496 4080,2480 4042,2442 4091,2401 4191,2430 4213,2495 4210,2495 4208,2494 4205,2493 Z"
     id="path196" /><path
     fill="rgb(0,0,0)"
     stroke="none"
     d="M 3817,3131 C 3831,3180 3853,3204 3880,3217 3872,3297 3966,3386 4032,3367 4031,3371 4031,3376 4030,3382 4135,3426 4200,3340 4268,3307 4208,3158 4016,3141 3817,3131 Z"
     id="path203" /><path
     fill="rgb(114,159,207)"
     stroke="none"
     d="M 3404,5812 C 3417,5779 3455,5771 3504,5774 3491,5807 3454,5815 3404,5812 Z"
     id="path220" /><path
     fill="rgb(114,159,207)"
     stroke="none"
     d="M 799,9507 C 799,9607 774,9733 834,9756 826,9842 821,9980 862,10008 927,9984 902,9832 891,9750 925,9723 919,9652 925,9620 988,9282 999,8943 1062,8630 1087,8506 1144,8382 1150,8267 1161,8061 1063,7796 1050,7540 1034,7226 1061,6976 1150,6789 1172,6725 1081,6736 1125,6689 1159,6431 1226,6333 1338,6175 1427,6049 1547,5965 1501,5774 1434,5820 1342,5849 1288,5912 1245,5962 1223,6058 1163,6150 1107,6235 1017,6294 987,6375 965,6436 976,6508 962,6576 913,6816 818,7067 799,7365 790,7516 794,7673 787,7828 780,7972 741,8114 737,8254 733,8373 743,8495 737,8617 731,8749 722,8895 737,9006 746,9075 789,9130 799,9194 815,9290 799,9408 799,9507 Z"
     id="path227" /><path
     fill="rgb(114,159,207)"
     stroke="none"
     d="M 4832,6927 C 4818,7042 4773,7121 4732,7227 4679,7364 4663,7511 4606,7591 4574,7801 4520,8075 4506,8342 4491,8620 4472,8938 4581,9131 4640,8864 4576,8474 4732,8304 4839,9222 4957,10074 4957,11085 4957,11346 4945,11690 4945,11987 4945,12071 4930,12180 4970,12220 4951,12296 4927,12417 4951,12487 4949,12487 4947,12488 4945,12488 4862,13334 4657,14095 4619,14918 4677,14925 4636,14842 4694,14880 4707,14783 4758,14705 4732,14605 4910,14208 4879,13676 4957,13189 4964,13141 5006,13205 4995,13139 5032,12954 5067,12704 5032,12488 5027,12489 5024,12491 5020,12492 5049,12418 5064,12288 5032,12219 5088,12119 5044,11636 5045,11574 5047,11343 5105,11179 5095,10997 5091,10930 5061,10866 5057,10797 5042,10519 5069,10229 5045,9933 5022,9654 4987,9373 4982,9094 4977,8799 5018,8514 4995,8229 4959,7798 4879,7380 4869,6927 L 4832,6927 Z"
     id="path234" /><path
     fill="rgb(114,159,207)"
     stroke="none"
     d="M 2390,12325 C 2387,11575 2433,10739 2390,10008 L 2365,10008 C 2364,10024 2349,10025 2352,10045 2334,10732 2340,11450 2340,12112 2340,12178 2310,12288 2357,12348 2348,12350 2338,12351 2327,12350 2276,12573 2291,12916 2302,13177 2305,13245 2277,13367 2315,13411 2323,13627 2249,13822 2240,13978 2378,13884 2350,13625 2375,13417 2407,13392 2398,13324 2402,13289 2436,13002 2403,12653 2415,12350 2407,12349 2400,12348 2402,12337 2402,12330 2400,12323 2390,12325 Z"
     id="path241" /><path
     fill="rgb(114,159,207)"
     stroke="none"
     d="M 4281,15055 C 4262,14669 4394,14263 4268,13877 4264,13878 4261,13879 4258,13879 4276,13730 4286,13412 4243,13263 L 4218,13263 4218,13264 4218,13614 C 4218,13704 4197,13806 4229,13868 4223,13865 4216,13863 4206,13865 4206,13882 4200,13892 4193,13902 4133,14189 4195,14534 4181,14854 4177,14934 4152,15007 4156,15080 4159,15142 4193,15204 4193,15267 4194,15376 4151,15483 4143,15593 4132,15744 4158,15938 4181,16119 4203,16297 4203,16496 4243,16633 4260,16689 4301,16727 4319,16783 4348,16876 4332,16971 4381,17059 4489,17011 4427,16906 4444,16796 4465,16658 4568,16542 4531,16395 4506,16295 4358,16189 4331,16094 4295,15967 4286,15788 4281,15656 4277,15535 4321,15416 4319,15293 4317,15215 4285,15135 4281,15055 Z"
     id="path253" /><path
     fill="rgb(114,159,207)"
     stroke="none"
     d="M 5733,15731 C 5661,15645 5748,15170 5604,15062 5647,14883 5558,14631 5582,14453 L 5532,14453 C 5532,14469 5516,14471 5520,14491 5512,14648 5533,14785 5545,14904 5549,14947 5543,15005 5557,15047 L 5557,15080 C 5514,15714 5578,16288 5482,16858 5473,16911 5441,16967 5432,17021 5362,17430 5461,17830 5407,18249 5589,18180 5661,17918 5733,17735 5799,17566 5749,17384 5770,17146 5783,17002 5759,16914 5758,16771 5753,16407 5713,16056 5733,15731 Z"
     id="path260" /><path
     fill="rgb(114,159,207)"
     stroke="none"
     d="M 6647,19778 C 6649,19759 6729,19727 6722,19778 L 6647,19778 Z"
     id="path267" /><path
     fill="#729fcf"
     stroke="none"
     d="m 6321,18887 c -29,-50 -81,-76 -163,-75 -126,133 -246,271 -400,376 -77,140 -119,315 -188,463 3,2 5,4 8,6 -67,28 -112,110 -171,145 -11,40 20,38 25,62 87,-31 169,-66 207,-146 2,2 4,5 6,8 30,-57 76,-99 113,-150 78,-197 255,-296 425,-401 69,-73 116,-168 138,-288 z"
     id="path274"
     style="display:inline" /><path
     fill="rgb(114,159,207)"
     stroke="none"
     d="M 3367,1378 C 3243,1393 3103,1631 3154,1779 3204,1624 3268,1484 3367,1378 Z"
     id="path281" /><path
     fill="rgb(114,159,207)"
     stroke="none"
     d="M 2916,1929 C 2881,2124 2729,2335 2803,2555 2844,2341 2914,2157 2953,1941 2937,1941 2936,1925 2916,1929 Z"
     id="path288" /><path
     fill="rgb(114,159,207)"
     stroke="none"
     d="M 4455,2392 C 4405,2205 4185,2120 3954,2154 3950,2171 3936,2178 3942,2205 4013,2235 4071,2207 4130,2217 4270,2242 4327,2361 4455,2392 Z"
     id="path295" /><path
     fill="rgb(114,159,207)"
     stroke="none"
     d="M 4104,5923 C 4013,5898 3797,6022 3804,6136 3894,6055 4010,6000 4104,5923 Z"
     id="path302" /><path
     fill="#000000"
     stroke="none"
     d="m 3504,1879 c 95,-44 147,-129 301,-113 -190,245 -416,453 -551,752 396,-395 834,-918 1666,-877 54,46 121,79 200,100 298,386 1,1030 -250,1290 -105,305 -213,606 -276,952 -29,-4 -47,-20 -88,-12 -15,-247 120,-555 0,-714 107,-99 242,-168 263,-351 -24,-21 -78,-14 -112,-25 -26,-41 -60,-74 -50,-150 97,-14 119,63 187,62 155,-3 189,-220 276,-325 -64,-200 -162,-364 -213,-577 -198,71 -610,165 -852,151 -239,107 -427,265 -538,501 -28,13 -63,20 -88,37 -34,159 -62,262 -138,363 47,109 65,250 138,351 64,88 208,182 213,226 8,63 -135,120 -75,213 -154,-4 -128,172 -175,275 149,110 531,152 651,-12 -26,-123 -99,-149 -188,-188 23,-78 79,-122 125,-176 46,62 143,161 213,238 -3,-94 84,-259 0,-313 33,-54 90,-86 138,-125 25,8 3,63 50,50 -74,360 -45,699 -38,1115 -13,55 43,41 38,87 -63,58 -71,33 -150,13 6,-223 -76,-359 -126,-526 -320,86 -645,58 -889,-75 -53,-176 -88,-371 -100,-589 -49,28 -47,39 -125,25 29,-150 24,-335 125,-413 16,-223 61,-459 100,-689 66,-385 96,-744 288,-977 122,-53 223,-128 364,-163 -8,26 -32,36 -26,75 -117,37 -186,123 -225,238 33,34 76,-43 125,0 -54,100 -143,166 -188,275 z m 1253,964 c -11,-47 -45,-72 -100,-75 0,58 35,81 100,75 z"
     id="path309"
     style="display:inline" /><path
     fill="#000000"
     stroke="none"
     d="m 5207,1566 c 39,24 35,90 75,112 -26,28 -63,46 -100,63 -19,-44 -48,-78 -50,-138 38,1 63,-11 75,-37 z"
     id="path316"
     style="display:inline" /><path
     fill="rgb(0,0,0)"
     stroke="none"
     d="M 6121,1616 C 6188,1649 6198,1739 6209,1829 6173,1826 6145,1832 6133,1854 6085,1810 6077,1727 6046,1666 6064,1642 6126,1663 6121,1616 Z"
     id="path323" /><path
     fill="rgb(0,0,0)"
     stroke="none"
     d="M 6271,2067 C 6320,2248 6304,2551 6246,2705 6197,2694 6200,2678 6146,2693 6169,2499 6209,2322 6196,2092 6229,2091 6270,2099 6272,2067 L 6271,2067 Z"
     id="path330" /><path
     fill="rgb(0,0,0)"
     stroke="none"
     d="M 3016,2255 C 3009,2371 3006,2470 3054,2555 3000,2827 2944,3096 2791,3269 2758,3256 2749,3219 2716,3207 2781,3078 2735,2931 2791,2818 2798,2804 2834,2795 2841,2781 2849,2761 2833,2731 2841,2706 2853,2666 2905,2639 2916,2605 2953,2490 2896,2358 2979,2255 2991,2255 3003,2255 3016,2255 Z"
     id="path337" /><path
     fill="rgb(0,0,0)"
     stroke="none"
     d="M 2665,2342 C 2673,2570 2604,2762 2640,2981 2578,2965 2587,3020 2540,3019 2551,2966 2506,2969 2490,2944 2528,2751 2536,2530 2578,2342 2607,2342 2636,2342 2665,2342 Z"
     id="path344" /><path
     fill="rgb(0,0,0)"
     stroke="none"
     d="M 4292,2468 C 4313,2488 4302,2541 4305,2580 4279,2603 4203,2620 4167,2593 4179,2559 4195,2529 4205,2493 4257,2507 4254,2466 4292,2468 Z"
     id="path351" /><path
     fill="rgb(0,0,0)"
     stroke="none"
     d="M 4131,2968 C 4212,2979 4255,3027 4318,3056 4320,3095 4279,3092 4293,3144 4199,3133 4104,3060 4131,2969 L 4131,2968 Z"
     id="path358" /><path
     fill="rgb(0,0,0)"
     stroke="none"
     d="M 4818,3382 C 4847,3395 4859,3425 4906,3420 4872,3531 4856,3686 4881,3820 4964,3851 4922,4060 5044,4071 5083,4074 5122,4044 5157,4008 5183,4032 5209,4056 5219,4096 5185,4132 5119,4137 5081,4171 5044,4210 5122,4204 5119,4246 5125,4306 5065,4301 5056,4346 4889,4217 4892,3881 4693,3820 4734,3673 4754,3505 4819,3382 L 4818,3382 Z"
     id="path365" /><path
     fill="rgb(0,0,0)"
     stroke="none"
     d="M 2603,3470 C 2644,3470 2651,3505 2703,3495 2712,3558 2682,3582 2690,3645 2623,3624 2636,3682 2590,3682 2541,3626 2602,3549 2603,3469 L 2603,3470 Z"
     id="path372" /><path
     fill="rgb(0,0,0)"
     stroke="none"
     d="M 2865,5498 C 2790,5080 2649,4671 2464,4358 2418,4280 2344,4167 2276,4107 2193,4034 2055,4024 2039,3882 2162,3846 2283,3752 2376,3657 2420,3611 2414,3528 2489,3582 2545,3709 2500,3836 2514,3957 2522,4030 2566,4090 2577,4158 2585,4209 2566,4260 2577,4308 2600,4416 2705,4501 2739,4596 2753,4632 2740,4671 2752,4709 2793,4844 2888,4978 2940,5122 3009,5313 3073,5498 3128,5673 3171,5663 3176,5692 3215,5686 3226,5541 3054,5405 3115,5210 3162,5187 3212,5292 3240,5360 3274,5440 3290,5535 3303,5611 3319,5668 3280,5671 3265,5698 3317,5751 3406,5728 3491,5723 3459,5275 3337,4809 3228,4396 3259,4397 3280,4389 3290,4371 3459,4574 3505,4899 3641,5135 3723,5008 3622,4698 3754,4621 3809,4762 3797,4970 3816,5147 3908,5114 3931,4902 4042,4847 4049,4872 4061,4894 4104,4884 4117,4965 4075,5024 4104,5085 4059,5077 4044,5099 4017,5110 3937,5398 3828,5655 3666,5861 3567,5883 3521,5958 3453,6011 3422,6294 3467,6572 3491,6838 3621,6802 3743,6571 3679,6375 3820,6299 3877,6123 4004,6024 4101,5949 4224,5922 4292,5824 4320,5784 4335,5709 4367,5636 4392,5580 4457,5511 4468,5473 4472,5456 4447,5416 4455,5398 4536,5209 4775,4987 4931,4859 4932,4769 4816,4726 4918,4671 4890,4628 4810,4638 4806,4571 4845,4539 4926,4549 4931,4483 4838,4486 4832,4577 4718,4558 4698,4489 4686,4471 4743,4433 4634,4418 4591,4529 4518,4508 4528,4457 4458,4485 4468,4433 4599,4383 4669,4398 4818,4346 4865,4391 4900,4447 4994,4446 4956,4537 5022,4535 5044,4596 5059,4827 4965,4940 4956,5172 4919,5142 4838,5157 4868,5059 4699,5254 4710,5627 4505,5786 4504,5881 4575,5964 4555,6036 4447,6001 4457,5973 4418,5874 4367,6058 4507,6160 4518,6325 4813,6260 4813,5902 4818,5548 4912,5501 4950,5526 4969,5636 5032,5578 5021,5446 5131,5435 5166,5577 5067,5686 5081,5849 5172,5583 5469,5207 5382,4821 5353,4695 5138,4578 5282,4458 5410,4551 5438,4745 5595,4809 5713,4946 5672,5169 5745,5348 5775,5420 5878,5467 5895,5535 5925,5653 5841,5769 5858,5886 5875,6008 6008,6056 5920,6174 5931,6238 6022,6222 6033,6287 5933,6408 5799,6238 5695,6249 5732,6152 5857,6094 5820,5961 5697,5947 5699,6124 5595,6087 5576,6041 5673,5988 5707,5911 5750,5817 5765,5698 5745,5586 5700,5626 5685,5756 5620,5736 5528,5642 5661,5489 5632,5323 5616,5225 5540,5155 5545,5059 5427,5389 5357,5765 5069,5924 5094,6115 5290,6189 5457,6199 5492,6365 5653,6404 5708,6550 5677,6756 5770,7011 5682,7151 5516,7133 5555,6943 5532,6813 5491,6576 5392,6327 5232,6224 5296,6416 5351,6642 5394,6888 5442,7159 5525,7444 5507,7740 5486,8092 5597,8548 5507,8805 5497,9712 5439,10701 5482,11648 5508,12223 5598,12814 5545,13364 5537,13440 5506,13512 5495,13589 5398,14273 5413,15016 5319,15706 5257,16171 5282,16657 5282,17084 5282,17187 5215,17323 5294,17422 5242,17647 5310,17986 5157,18136 5104,17942 5098,17702 5019,17535 4867,17807 4757,18318 4894,18687 5034,18598 5107,18333 5257,18211 5348,18601 5105,18845 4919,19038 4899,19086 4914,19167 4856,19176 4771,19048 4711,18880 4668,18712 4600,18450 4569,18181 4593,17886 4609,17682 4578,17466 4630,17272 4663,17152 4719,17045 4731,16921 4746,16753 4764,16645 4781,16483 4814,16445 4832,16392 4868,16357 L 4868,16232 C 4998,16063 4951,15848 5006,15644 5026,15569 5063,15508 5081,15431 5134,15211 5183,14976 5219,14742 5243,14584 5248,14417 5282,14253 5361,13870 5373,13432 5394,12938 5411,12560 5387,12216 5357,11886 5305,11321 5321,10733 5294,10145 5276,9744 5260,9347 5232,8955 5214,8710 5248,8466 5257,8241 5266,8007 5210,7785 5194,7552 5189,7473 5205,7381 5194,7302 5186,7246 5146,7196 5131,7126 5051,6748 5253,6192 4931,6062 4872,6383 4760,6650 4668,6938 4607,6945 4609,6888 4568,6876 4624,6682 4700,6507 4768,6325 4618,6370 4522,6562 4317,6475 4321,6722 4392,6902 4455,7089 4465,7133 4524,7128 4555,7151 4514,7314 4481,7477 4430,7640 4383,7789 4291,7928 4255,8078 4227,8191 4224,8356 4205,8517 4148,8980 4118,9627 4142,10120 4152,10324 4256,10514 4255,10696 4199,10682 4193,10717 4155,10721 4076,10344 3941,10011 3904,9581 3892,9436 3822,9299 3804,9155 3688,8206 3360,7259 3316,6274 3309,6138 3297,5949 3353,5861 3271,5887 3205,6039 3078,6062 2894,6316 2789,6682 2865,7126 2853,7172 2921,7137 2915,7176 2968,7537 2885,7969 2902,8354 2908,8495 2943,8647 2965,8805 2986,8959 2985,9125 3015,9255 3029,9314 3066,9369 3078,9431 3117,9639 3104,9859 3140,10070 3153,10145 3194,10218 3203,10295 3210,10357 3196,10416 3203,10483 3227,10720 3336,10957 3366,11172 3433,11656 3305,11921 3103,12211 3045,12294 2983,12365 2940,12449 2898,12531 2892,12646 2790,12687 2846,12266 2859,11862 2802,11410 2753,11021 2759,10543 2739,10107 2721,9707 2768,9398 2739,9005 2721,8750 2662,8495 2664,8253 2666,8151 2696,8053 2702,7953 2717,7709 2655,7478 2652,7239 2543,7327 2612,7592 2514,7690 2485,7690 2477,7668 2439,7677 2431,7518 2519,7359 2439,7239 2366,7317 2351,7452 2301,7552 2280,7535 2259,7519 2213,7527 2245,7091 2425,6804 2564,6475 2738,6214 2932,5974 3203,5811 3027,5698 2968,5775 2815,5861 2776,5883 2736,5884 2714,5899 2670,5929 2638,5996 2589,6036 2568,6054 2536,6046 2514,6061 2452,6104 2411,6192 2351,6249 2195,6398 2149,6411 2052,6625 2024,6687 1975,6744 1951,6800 1881,6967 1867,7225 1826,7414 1789,7590 1785,7898 1764,8128 1769,8179 1710,8167 1701,8203 1572,8989 1642,9974 1576,10821 1467,10820 1469,10670 1463,10596 1403,9885 1408,8999 1488,8304 1468,8157 1500,7908 1526,7665 1546,7478 1555,7268 1601,7139 1657,6980 1775,6863 1776,6700 1903,6531 2009,6340 2114,6149 1971,6161 1906,6250 1764,6262 1790,6042 2000,6005 2089,5849 1989,5791 1803,5817 1651,5811 1787,5476 2365,5679 2614,5773 2560,5473 2412,5266 2314,5009 2569,5099 2670,5345 2865,5497 L 2865,5498 Z M 3403,5811 C 3453,5814 3490,5806 3503,5773 3454,5770 3416,5778 3403,5811 Z M 4167,7602 C 4151,7585 4113,7589 4080,7589 4046,7326 4088,6988 4004,6775 3990,6949 3907,7112 3942,7289 3951,7337 3999,7377 4004,7427 4012,7495 3967,7584 3967,7677 3967,7752 3997,7829 3992,7890 3986,7969 3902,8063 3967,8141 4043,8046 4064,7895 4092,7752 4105,7782 4160,7767 4180,7790 4188,7840 4158,7929 4205,7940 4237,7759 4296,7606 4292,7389 4341,7367 4374,7328 4405,7289 4414,7213 4384,7176 4380,7113 4321,7111 4311,7095 4280,7088 4229,6955 4273,6728 4167,6650 4167,6962 4261,7309 4167,7602 Z M 3566,7489 C 3633,7481 3629,7402 3629,7326 3737,7213 3733,6988 3779,6813 3776,6803 3769,6798 3754,6800 3674,7006 3540,7218 3566,7489 Z M 3741,8040 C 3748,7747 3882,7526 3829,7214 3813,7213 3812,7198 3791,7201 3762,7454 3680,7797 3741,8040 Z"
     id="path379" /><path
     fill="rgb(0,0,0)"
     stroke="none"
     d="M 3104,4634 C 3040,4535 2960,4453 2916,4334 2893,4278 2780,4284 2728,4209 2654,4101 2617,3844 2703,3808 2878,4042 3093,4236 3104,4634 Z"
     id="path386" /><path
     fill="rgb(0,0,0)"
     stroke="none"
     d="M 111,8868 L 111,8755 C 147,8348 106,7951 123,7565 136,7288 184,7013 186,6751 186,6689 166,6615 173,6551 213,6184 463,5851 574,5511 639,5313 682,5156 774,4985 862,4822 933,4649 1000,4484 1189,4252 1401,4042 1638,3858 1666,3877 1668,3921 1714,3921 1663,4012 1576,4067 1488,4121 1485,4264 1286,4406 1300,4534 1303,4556 1310,4564 1338,4559 1319,4570 1267,4616 1338,4609 1284,4706 1247,4820 1213,4935 1210,4983 1223,4940 1250,4948 1239,4987 1203,5000 1200,5048 1249,5059 1263,4927 1338,4923 1307,5092 1170,5156 1150,5336 1218,5383 1210,5246 1288,5261 1227,5387 1132,5481 1075,5611 1086,5642 1112,5583 1150,5599 1133,5699 1047,5730 1050,5849 832,6112 741,6501 536,6776 466,7103 366,7460 348,7841 339,8050 359,8256 348,8467 339,8650 276,8831 261,9018 245,9202 283,9403 298,9607 309,9752 281,9905 298,10033 305,10081 338,10121 348,10171 400,10415 324,10684 348,10935 312,10932 285,10938 273,10960 226,10516 232,10061 173,9632 166,9582 139,9533 136,9482 120,9274 219,9053 111,8868 Z"
     id="path393" /><path
     fill="rgb(0,0,0)"
     stroke="none"
     d="M 837,9757 C 773,9738 799,9609 799,9507 799,9408 815,9290 799,9194 789,9130 746,9075 737,9006 722,8895 731,8749 737,8617 743,8495 733,8373 737,8254 741,8114 780,7972 787,7828 794,7673 790,7516 799,7365 818,7067 913,6816 962,6576 976,6508 965,6436 987,6375 1017,6294 1107,6235 1163,6150 1223,6058 1245,5962 1288,5912 1342,5849 1434,5820 1501,5774 1547,5965 1427,6049 1338,6175 1226,6333 1159,6431 1125,6689 1081,6736 1172,6725 1150,6789 1061,6976 1034,7226 1050,7540 1063,7796 1161,8061 1150,8267 1144,8382 1087,8506 1062,8630 999,8943 988,9282 925,9620 916,9664 931,9778 837,9758 L 837,9757 Z"
     id="path400" /><path
     fill="rgb(0,0,0)"
     stroke="none"
     d="M 5920,6625 C 5931,6623 5932,6630 5933,6637 5939,7090 5971,7539 5920,7965 5905,8093 5859,8230 5858,8353 5856,8493 5917,8633 5933,8779 5959,9014 5912,9295 5908,9568 5902,9969 5885,10352 5883,10696 5939,10632 5917,10524 5933,10420 5952,10298 6052,10172 5958,10069 5990,9614 6108,9107 6108,8591 6108,8199 6083,7798 6083,7401 6083,7282 6041,7112 6146,7063 6237,7299 6230,7557 6246,7815 6262,8063 6312,8340 6284,8616 6272,8732 6223,8844 6209,8967 6194,9092 6182,9224 6171,9355 6130,9861 5987,10429 5933,10934 5909,11159 5946,11423 5946,11673 5946,12407 5923,13175 5921,13890 5919,14299 5933,14712 5933,15192 5933,15480 5919,15777 5946,16044 5972,16306 6001,16589 6033,16858 6069,17150 6126,17449 6096,17685 6084,17778 6026,17868 6021,17960 6014,18093 6072,18219 6071,18349 6171,18403 6351,18378 6384,18499 6375,18564 6294,18539 6259,18549 6152,18579 5999,18631 5896,18699 5853,18727 5806,18791 5745,18837 5682,18884 5611,18907 5582,18962 5553,19020 5576,19079 5557,19138 5538,19201 5481,19266 5457,19326 5430,19393 5433,19473 5357,19501 5309,19453 5234,19453 5307,19376 5138,19486 4896,19452 4894,19263 4891,19091 5114,19012 5257,18950 5348,18847 5358,18710 5407,18587 5503,18346 5691,18163 5845,17985 5854,17856 5947,17794 5958,17685 5965,17612 5928,17530 5921,17447 5901,17228 5916,16969 5883,16758 5871,16678 5828,16602 5820,16482 5810,16312 5813,16109 5795,15919 5770,15645 5773,15446 5783,15230 5808,14684 5770,14048 5770,13439 5770,13093 5860,12745 5833,12424 5735,11287 5774,9915 5770,8729 5770,8512 5763,8296 5770,8078 5778,7857 5730,7645 5745,7439 5765,7175 5865,6920 5858,6662 5888,6658 5912,6649 5921,6625 L 5920,6625 Z"
     id="path407" /><path
     fill="rgb(0,0,0)"
     stroke="none"
     d="M 4832,6927 L 4869,6927 C 4879,7380 4959,7798 4995,8229 5018,8514 4977,8799 4982,9094 4987,9373 5022,9654 5045,9933 5069,10229 5042,10519 5057,10797 5061,10866 5091,10930 5095,10997 5105,11179 5047,11343 5045,11574 5044,11644 5100,12244 5007,12237 4923,12231 4945,12091 4945,11987 4945,11690 4957,11346 4957,11085 4957,10074 4839,9222 4732,8304 4576,8474 4640,8864 4581,9131 4472,8938 4491,8620 4506,8342 4520,8075 4574,7801 4606,7591 4663,7511 4679,7364 4732,7227 4773,7121 4818,7042 4832,6927 Z"
     id="path414" /><path
     fill="rgb(0,0,0)"
     stroke="none"
     d="M 4280,10858 C 4351,10971 4389,11117 4405,11284 4360,11259 4345,11286 4305,11297 4230,11200 4229,11031 4205,10884 4238,10883 4279,10890 4280,10858 Z"
     id="path421" /><path
     fill="rgb(0,0,0)"
     stroke="none"
     d="M 4256,11423 C 4476,11801 4118,12119 3980,12375 3824,12482 3700,12621 3617,12801 3614,12839 3561,12829 3554,12864 3540,12945 3644,12961 3617,13014 3595,13045 3542,13044 3504,13027 3471,12767 3471,12476 3442,12212 3400,12215 3366,12183 3329,12150 3341,12100 3389,12084 3379,12012 3633,11777 3738,11393 4256,11423 Z"
     id="path428" /><path
     fill="rgb(0,0,0)"
     stroke="none"
     d="M 1776,11560 C 1787,11558 1788,11565 1789,11573 1799,11575 1801,11585 1814,11585 1906,11901 1847,12419 1826,12875 1797,13522 1818,14131 1764,14729 1993,14569 2269,14428 2402,14153 2489,13973 2478,13675 2590,13539 2712,13549 2665,13729 2665,13840 2665,14115 2660,14403 2640,14666 2687,14700 2733,14559 2778,14591 2888,14709 2832,14908 2816,15080 2791,15333 2760,15574 2766,15819 2727,15828 2729,15797 2691,15806 2631,15588 2678,15260 2691,15030 2609,15083 2562,15201 2490,15305 2431,15391 2333,15494 2302,15606 2272,15716 2309,15868 2290,16007 2277,16099 2221,16205 2265,16345 2206,16393 2165,16382 2114,16432 2034,16345 2114,16198 2127,16057 2136,15951 2115,15837 2139,15744 2154,15686 2204,15635 2215,15581 2276,15265 2171,14897 2240,14554 2151,14530 2109,14655 2039,14691 2005,14996 2024,15337 2027,15618 1880,15605 1908,15461 1876,15368 1803,15152 1657,15044 1651,14829 1648,14711 1697,14585 1689,14441 1683,14335 1691,14231 1689,14090 1676,13284 1699,12357 1776,11561 L 1776,11560 Z"
     id="path435" /><path
     fill="rgb(0,0,0)"
     stroke="none"
     d="M 3292,12362 C 3229,12821 3206,13320 3116,13752 3089,13742 3073,13720 3029,13727 3045,13409 3036,13066 3054,12750 3001,12808 2981,12940 2866,12863 2952,12653 3098,12503 3204,12312 3243,12319 3258,12350 3291,12362 L 3292,12362 Z"
     id="path442" /><path
     fill="rgb(0,0,0)"
     stroke="none"
     d="M 2390,12324 C 2400,12322 2402,12329 2402,12336 2400,12347 2407,12348 2415,12349 2403,12652 2436,13001 2402,13288 2397,13330 2411,13418 2352,13426 2263,13424 2306,13259 2302,13176 2291,12915 2276,12572 2327,12349 2358,12351 2379,12343 2390,12324 Z"
     id="path449" /><path
     fill="rgb(0,0,0)"
     stroke="none"
     d="M 5031,12488 C 5066,12704 5031,12954 4994,13139 5005,13205 4963,13141 4956,13189 4878,13675 4909,14207 4731,14604 4757,14704 4706,14782 4693,14879 4635,14841 4676,14924 4618,14917 4656,14094 4861,13333 4944,12488 4996,12484 4992,12504 5031,12488 Z"
     id="path456" /><path
     fill="rgb(0,0,0)"
     stroke="none"
     d="M 3954,12525 C 4045,12708 3955,12907 3954,13102 3952,13640 3975,14216 3954,14780 3939,15176 3930,15589 3954,15982 3936,16030 4010,15985 3992,16033 4026,16561 4063,17070 4155,17523 4165,17574 4199,17623 4205,17673 4210,17715 4191,17754 4192,17799 4198,17946 4288,18183 4368,18375 4443,18558 4501,18765 4568,18912 4603,18989 4665,19045 4693,19113 4708,19148 4704,19193 4718,19226 4760,19323 4868,19388 4881,19489 4970,19571 5077,19634 5156,19726 5097,19767 5119,19775 5144,19839 5087,19873 5027,19834 4956,19839 4890,19844 4827,19890 4756,19902 4493,19944 4180,19878 3967,19939 3977,19896 3955,19884 3929,19877 4180,19781 4541,19795 4806,19714 4812,19545 4706,19488 4681,19351 4472,19368 4303,19424 4079,19426 4087,19177 4273,19003 4380,18812 4335,18703 4333,18552 4255,18475 4188,18547 4123,18845 4004,18787 3951,18782 3992,18682 3979,18638 4094,18610 4128,18406 4205,18300 4122,18149 4164,17873 3979,17824 3960,17475 3959,17110 3867,16834 3804,17038 3843,17342 3829,17598 3816,17835 3755,18077 3741,18312 3728,18543 3822,19108 3566,19088 3375,19072 3411,18666 3429,18450 3481,18464 3478,18424 3516,18425 3544,18502 3540,18609 3566,18687 3636,18550 3663,18309 3641,18124 3636,18082 3605,18050 3604,18012 3599,17883 3647,17723 3654,17573 3666,17310 3654,17094 3666,16822 3673,16674 3711,16529 3716,16383 3738,15737 3712,15092 3716,14467 3667,14443 3683,14620 3591,14555 3569,14388 3596,14039 3604,13803 3277,13998 3370,14528 3329,15068 3290,15580 3254,16138 3279,16709 3293,17035 3401,17336 3379,17686 3372,17805 3335,17921 3329,18037 3314,18334 3389,18598 3229,18787 3238,19089 3007,19313 3016,19614 3089,19674 3224,19673 3292,19739 3094,19903 2813,19698 2553,19714 2442,19721 2339,19793 2240,19727 2198,19634 2366,19612 2415,19614 2444,19588 2401,19561 2440,19539 2496,19533 2531,19548 2565,19564 2681,19475 2728,19317 2828,19213 2826,19026 2964,18899 3003,18724 3058,18488 3022,18181 3041,17911 3046,17843 3071,17781 3079,17711 3153,17055 3038,16298 3091,15569 3118,15195 3119,14725 3116,14329 3099,14308 3053,14298 3003,14279 3066,14177 3120,14065 3229,13978 3256,13957 3302,13952 3329,13928 3364,13898 3385,13834 3429,13791 3525,13696 3607,13635 3704,13515 3752,13455 3828,13381 3842,13340 3902,13160 3842,12757 3804,12638 3853,12606 3876,12489 3954,12525 Z"
     id="path463" /><path
     fill="rgb(0,0,0)"
     stroke="none"
     d="M 4268,13877 C 4394,14263 4262,14669 4281,15055 4285,15135 4317,15215 4319,15293 4321,15416 4277,15535 4281,15656 4286,15788 4295,15967 4331,16094 4358,16189 4506,16295 4531,16395 4568,16542 4465,16658 4444,16796 4427,16906 4489,17011 4381,17059 4332,16971 4348,16876 4319,16783 4301,16727 4260,16689 4243,16633 4203,16496 4203,16297 4181,16119 4158,15938 4132,15744 4143,15593 4151,15483 4194,15376 4193,15267 4193,15204 4159,15142 4156,15080 4152,15007 4177,14934 4181,14854 4195,14534 4133,14189 4193,13902 4200,13892 4206,13882 4206,13865 4236,13859 4233,13887 4269,13877 L 4268,13877 Z"
     id="path470" /><path
     fill="rgb(0,0,0)"
     stroke="none"
     d="M 486,14165 C 510,14213 492,14274 474,14316 447,14305 431,14283 386,14291 L 386,14178 C 431,14202 432,14161 486,14165 Z"
     id="path477" /><path
     fill="rgb(0,0,0)"
     stroke="none"
     d="M 474,15769 C 441,15769 400,15762 399,15794 277,15518 420,15161 386,14817 429,14827 439,14803 461,14792 538,14966 466,15494 474,15769 Z"
     id="path484" /><path
     fill="rgb(0,0,0)"
     stroke="none"
     d="M 5557,15042 C 5766,15078 5654,15637 5733,15731 5713,16056 5753,16407 5758,16771 5759,16914 5783,17002 5770,17146 5749,17384 5799,17566 5733,17735 5661,17918 5589,18180 5407,18249 5461,17830 5362,17430 5432,17021 5441,16967 5473,16911 5482,16858 5578,16288 5514,15714 5557,15080 L 5557,15043 5557,15042 Z"
     id="path491" /><path
     fill="rgb(0,0,0)"
     stroke="none"
     d="M 374,16182 C 402,16195 414,16225 461,16219 431,16627 477,17112 386,17459 357,17447 346,17416 298,17422 354,17062 317,16569 374,16182 Z"
     id="path498" /><path
     fill="rgb(0,0,0)"
     stroke="none"
     d="M 1689,16182 C 1737,16184 1738,16233 1776,16244 1714,16349 1652,16454 1563,16533 1543,16507 1530,16475 1488,16470 1529,16347 1629,16285 1689,16182 Z"
     id="path505" /><path
     fill="rgb(0,0,0)"
     stroke="none"
     d="M 1889,16658 C 1888,17104 2003,17593 1901,17986 1874,17975 1859,17953 1814,17960 1833,17546 1775,16998 1751,16658 1805,16619 1830,16624 1889,16658 Z"
     id="path512" /><path
     fill="rgb(0,0,0)"
     stroke="none"
     d="M 1638,16833 C 1569,17631 1516,18512 1501,19326 1368,19351 1296,19438 1150,19451 1401,18767 1460,17890 1463,16958 1514,16898 1463,16874 1501,16821 1519,16814 1532,16802 1551,16796 1581,16808 1584,16846 1638,16833 Z"
     id="path519" /><path
     fill="rgb(0,0,0)"
     stroke="none"
     d="M 1213,17009 C 1233,17185 1192,17378 1175,17585 1149,17900 1127,18235 1112,18562 1102,18797 1105,19024 1062,19226 992,19558 653,19659 474,19864 L 349,19864 C 334,19930 284,19959 261,20015 89,19930 283,19751 436,19764 535,19423 432,18929 323,18637 332,18595 371,18585 386,18549 444,17843 849,17485 1112,16984 1150,16988 1157,17022 1213,17009 Z M 662,17961 C 651,18013 667,18088 662,18161 654,18262 619,18370 624,18449 625,18463 660,18499 662,18512 675,18594 634,18718 624,18825 601,19069 596,19309 599,19564 680,19536 739,19486 774,19413 659,18962 933,18569 849,18148 902,18001 900,17672 887,17547 855,17702 692,17810 662,17960 L 662,17961 Z"
     id="path526" /><path
     fill="rgb(0,0,0)"
     stroke="none"
     d="M 2766,18436 C 2830,18845 2543,19114 2428,19426 2094,19598 1758,19767 1338,19852 1341,19816 1335,19788 1313,19777 1425,19640 1611,19646 1764,19589 1824,19566 1905,19506 1977,19464 2154,19359 2182,19274 2315,19113 2365,19052 2435,18982 2465,18925 2475,18905 2457,18871 2465,18850 2487,18797 2550,18741 2578,18674 2617,18581 2625,18499 2691,18436 2715,18436 2740,18436 2766,18436 Z"
     id="path533" /><path
     fill="rgb(0,0,0)"
     stroke="none"
     d="M 6572,18536 C 6586,18534 6594,18539 6597,18549 6674,18560 6642,18679 6672,18737 6766,18831 6962,18815 6998,18975 7016,19056 6954,19170 6947,19263 6935,19439 6982,19638 6860,19714 6863,19798 6872,19816 6847,19877 6725,19886 6603,19829 6497,19864 6468,19859 6498,19796 6459,19802 6619,19690 6857,19656 6835,19363 6632,19377 6528,19491 6421,19601 6213,19668 6120,19850 5883,19889 5860,19821 5946,19799 5983,19764 6222,19539 6452,19253 6860,19175 6909,18963 6776,18914 6672,18825 6607,19160 6342,19296 6108,19463 6100,19250 6251,19197 6384,19125 6431,18991 6558,18893 6559,18737 6559,18667 6519,18600 6571,18537 L 6572,18536 Z M 6647,19777 L 6722,19777 C 6729,19726 6649,19758 6647,19777 Z"
     id="path540" /><path
     fill="rgb(0,0,0)"
     stroke="none"
     d="M 2114,18587 C 2135,18670 2120,18790 2152,18862 2223,18854 2253,18697 2302,18624 2340,18628 2347,18663 2402,18649 2412,18751 2318,18837 2252,18950 2198,19044 2138,19226 2002,19175 2017,18999 2015,18805 2014,18612 2071,18627 2063,18578 2114,18587 Z"
     id="path547" /><path
     fill="rgb(0,0,0)"
     stroke="none"
     d="M 1714,18737 C 1733,18755 1738,18787 1789,18775 1781,18979 1805,19217 1776,19401 1774,19428 1786,19441 1814,19438 1780,19484 1743,19526 1663,19526 1642,19501 1664,19434 1601,19451 1624,19382 1628,19294 1689,19263 1667,19105 1663,18863 1714,18737 Z"
     id="path554" /><path
     fill="rgb(0,0,0)"
     stroke="none"
     d="M 6321,18887 C 6299,19007 6252,19102 6183,19175 6013,19280 5836,19379 5758,19576 5721,19627 5675,19669 5645,19726 5624,19698 5599,19673 5570,19651 5639,19503 5681,19328 5758,19188 5912,19083 6032,18945 6158,18812 6240,18811 6292,18837 6321,18887 Z"
     id="path561" /><path
     fill="rgb(0,0,0)"
     stroke="none"
     d="M 3292,19012 C 3302,19019 3312,19026 3329,19025 3382,19289 3502,19487 3655,19651 3743,19635 3779,19566 3818,19501 3858,19534 3942,19524 3905,19601 4092,19590 4353,19492 4506,19601 4370,19702 4193,19669 4018,19689 3794,19714 3628,19871 3467,19939 3461,19963 3484,20015 3442,20002 3301,19919 3481,19869 3517,19789 3485,19658 3351,19629 3279,19539 3282,19373 3236,19153 3292,19013 L 3292,19012 Z"
     id="path568" /><path
     fill="rgb(0,0,0)"
     stroke="none"
     d="M 3967,19113 C 3988,19129 4009,19146 4055,19138 4088,19218 4020,19280 4004,19351 3977,19340 3962,19318 3917,19326 3921,19243 3933,19167 3967,19113 Z"
     id="path575" /><path
     fill="rgb(0,0,0)"
     stroke="none"
     d="M 1426,19501 C 1406,19520 1416,19552 1438,19564 1341,19650 1213,19706 1150,19827 1193,19899 1111,19973 1188,20027 1141,20056 1042,20032 975,20040 1015,19998 956,19985 937,19965 950,19890 1037,19889 1075,19839 969,19748 795,19852 662,19852 668,19812 639,19808 649,19764 901,19670 1086,19508 1426,19501 Z"
     id="path582" /><path
     fill="rgb(0,0,0)"
     stroke="none"
     d="M 5870,19689 C 5877,19770 5806,19775 5783,19827 5818,19895 5802,19957 5783,20027 5712,19989 5644,20052 5557,20040 5557,20006 5564,19966 5532,19965 5660,19896 5742,19716 5870,19689 Z"
     id="path589" /><path
     fill="rgb(0,0,0)"
     stroke="none"
     d="M 7123,19914 L 7123,19977 C 7103,20024 7074,20062 7010,20065 7023,20014 6991,20009 6972,19990 6972,19918 7036,19912 7048,19852 7096,19850 7104,19887 7123,19914 Z"
     id="path596" /><path
     fill="rgb(0,0,0)"
     stroke="none"
     d="M 3141,19965 C 3151,20016 3101,20008 3116,20065 2934,20080 2812,20035 2640,20040 2654,19984 2619,19977 2615,19940 2803,19922 2972,19934 3141,19965 Z"
     id="path603" /><path
     fill="rgb(0,0,0)"
     stroke="none"
     d="M 1814,19939 C 1811,19975 1817,20003 1839,20015 1751,20062 1587,20066 1476,20052 1478,20016 1472,19989 1451,19977 1533,19926 1684,19943 1814,19939 Z"
     id="path610" /><path
     fill="rgb(0,0,0)"
     stroke="none"
     d="M 2390,902 L 2415,902 C 2412,950 2498,950 2465,990 2441,960 2397,949 2390,902 Z"
     id="path617" /><path
     fill="rgb(0,0,0)"
     stroke="none"
     d="M 3830,288 L 4181,288 C 5063,373 5688,793 6033,1415 6077,1494 6170,1598 6121,1703 6001,1622 5978,1475 5908,1365 5435,621 4292,96 3154,539 2662,730 2196,1124 2002,1616 1796,2136 1834,2953 2252,3332 2298,3299 2335,3257 2352,3194 2329,3096 2245,3042 2202,2969 1830,2337 2204,1438 2590,1052 3363,279 4924,436 5582,1228 5805,1494 5955,1835 5983,2217 6036,2947 5655,3421 5232,3733 5141,3800 5037,3901 4895,3895 5440,3531 5999,3165 5933,2242 5860,1228 4939,529 3868,589 3375,616 2921,796 2628,1090 2210,1507 1818,2593 2390,3119 2471,3066 2473,2873 2603,2944 2666,2978 2679,3151 2603,3219 2501,3217 2594,3089 2565,3006 2467,3092 2446,3234 2365,3332 2319,3387 2243,3421 2189,3482 2033,3660 1857,3825 1651,3933 1662,3808 1810,3747 1901,3670 2006,3583 2091,3484 2177,3394 1919,3064 1751,2648 1789,2117 1864,1067 2831,382 3830,288 Z"
     id="path624" /><path
     fill="rgb(0,0,0)"
     stroke="none"
     d="M 5208,1616 C 5132,1626 5106,1531 5070,1491 4901,1303 4548,1058 4206,1040 3614,1007 3056,1440 2828,1829 2730,1996 2692,2173 2628,2367 2596,1989 2834,1636 3104,1403 3350,1189 3873,887 4343,1002 4696,1088 5073,1318 5208,1616 Z"
     id="path631" /><path
     fill="rgb(0,0,0)"
     stroke="none"
     d="M 3367,1378 C 3268,1484 3204,1624 3154,1779 3103,1631 3243,1393 3367,1378 Z"
     id="path638" /><path
     fill="rgb(0,0,0)"
     stroke="none"
     d="M 5207,1666 L 5232,1666 C 5673,2269 5026,2958 4869,3457 4774,3371 4871,3226 4907,3144 5045,2825 5348,2523 5307,2054 5295,1925 5244,1836 5194,1704 5191,1683 5206,1682 5206,1666 L 5207,1666 Z"
     id="path645" /><path
     fill="rgb(0,0,0)"
     stroke="none"
     d="M 6133,1791 L 6158,1791 C 6232,1855 6316,2030 6259,2142 6180,2069 6125,1909 6133,1791 Z"
     id="path652" /><path
     fill="rgb(0,0,0)"
     stroke="none"
     d="M 2916,1929 C 2936,1925 2937,1941 2953,1941 2914,2157 2844,2341 2803,2555 2729,2335 2881,2124 2916,1929 Z"
     id="path659" /><path
     fill="rgb(0,0,0)"
     stroke="none"
     d="M 4455,2392 C 4327,2361 4270,2242 4130,2217 4071,2207 4013,2235 3942,2205 3936,2178 3950,2171 3954,2154 4185,2120 4405,2205 4455,2392 Z"
     id="path666" /><path
     fill="rgb(0,0,0)"
     stroke="none"
     d="M 4205,2580 C 4089,2563 3987,2531 3954,2430 4012,2280 4295,2367 4280,2493 4274,2539 4228,2530 4205,2580 Z M 4042,2442 C 4084,2484 4153,2499 4217,2518 4214,2437 4096,2396 4042,2442 Z"
     id="path673" /><path
     fill="rgb(0,0,0)"
     stroke="none"
     d="M 4743,2518 C 4869,2521 4996,2524 5019,2630 4939,2645 4847,2570 4743,2568 L 4743,2518 Z"
     id="path680" /><path
     fill="rgb(0,0,0)"
     stroke="none"
     d="M 4919,2805 C 4801,2732 4712,2636 4593,2717 4469,2801 4513,3011 4418,3130 4369,3150 4279,3147 4255,3105 4256,3036 4322,3087 4368,3080 4452,2976 4419,2776 4530,2679 4643,2582 4907,2609 4919,2805 Z"
     id="path687" /><path
     fill="rgb(0,0,0)"
     stroke="none"
     d="M 6222,2643 C 6175,3158 5882,3575 5546,3858 5434,3951 5304,4063 5158,4083 5147,3988 5256,3968 5308,3933 5708,3657 6026,3247 6159,2680 6153,2653 6183,2663 6184,2643 6197,2643 6210,2643 6222,2643 Z"
     id="path694" /><path
     fill="rgb(0,0,0)"
     stroke="none"
     d="M 2791,3207 C 2800,3266 2759,3275 2740,3307 2705,3384 2740,3532 2628,3532 2622,3420 2648,3170 2790,3207 L 2791,3207 Z"
     id="path701" /><path
     fill="rgb(0,0,0)"
     stroke="none"
     d="M 4568,3244 C 4518,3348 4369,3469 4267,3495 4328,3372 4433,3293 4568,3244 Z"
     id="path708" /><path
     fill="rgb(0,0,0)"
     stroke="none"
     d="M 2514,3319 L 2552,3319 C 2558,3398 2538,3554 2477,3607 2419,3539 2509,3408 2514,3319 Z"
     id="path715" /><path
     fill="rgb(0,0,0)"
     stroke="none"
     d="M 2979,3506 C 2999,3503 3000,3518 3016,3519 2977,3629 3036,3835 2991,3907 2919,3826 2935,3601 2979,3506 Z"
     id="path722" /><path
     fill="rgb(0,0,0)"
     stroke="none"
     d="M 4218,3557 C 4105,3785 3673,3703 3517,3570 3513,3550 3529,3548 3529,3532 3629,3551 3779,3624 3918,3645 4022,3627 4121,3541 4218,3557 Z"
     id="path729" /><path
     fill="rgb(0,0,0)"
     stroke="none"
     d="M 2653,3607 C 2674,3695 2720,3809 2715,3883 2583,3917 2548,3613 2653,3607 Z"
     id="path736" /><path
     fill="rgb(0,0,0)"
     stroke="none"
     d="M 3868,3783 C 3880,3885 3803,4001 3755,4083 3682,4015 3780,3814 3868,3783 Z"
     id="path743" /><path
     fill="rgb(0,0,0)"
     stroke="none"
     d="M 4757,3795 C 4753,3886 4726,4012 4707,4133 4689,4248 4692,4385 4619,4447 4604,4230 4655,3974 4719,3795 L 4757,3795 Z"
     id="path750" /><path
     fill="rgb(0,0,0)"
     stroke="none"
     d="M 4255,4647 C 4297,4547 4422,4531 4480,4446 4464,4273 4455,4017 4555,3920 4651,3992 4558,4209 4568,4346 4571,4383 4588,4415 4580,4446 4561,4528 4315,4716 4255,4647 Z"
     id="path757" /><path
     fill="rgb(0,0,0)"
     stroke="none"
     d="M 3254,4058 C 3228,4219 3346,4299 3304,4434 3191,4426 3086,4033 3254,4058 Z"
     id="path764" /><path
     fill="rgb(0,0,0)"
     stroke="none"
     d="M 5056,4259 C 5183,4291 5320,4432 5282,4547 5175,4490 5052,4386 5056,4259 Z"
     id="path771" /><path
     fill="rgb(0,0,0)"
     stroke="none"
     d="M 4756,4497 C 4700,4598 4576,4617 4493,4684 4424,4741 4392,4826 4305,4860 4326,4680 4549,4595 4693,4497 L 4756,4497 Z"
     id="path778" /><path
     fill="rgb(0,0,0)"
     stroke="none"
     d="M 4856,4584 C 4803,4672 4705,4719 4631,4785 4557,4850 4498,4927 4418,4985 4450,4804 4661,4695 4806,4584 4823,4584 4839,4584 4856,4584 Z"
     id="path785" /><path
     fill="rgb(0,0,0)"
     stroke="none"
     d="M 4029,4923 C 4023,4803 4140,4700 4255,4660 4257,4670 4267,4672 4267,4685 4253,4762 4198,4799 4142,4835 4107,4867 4112,4938 4029,4922 L 4029,4923 Z"
     id="path792" /><path
     fill="rgb(0,0,0)"
     stroke="none"
     d="M 4944,4735 C 4879,4856 4731,4888 4643,4985 4590,5044 4584,5153 4480,5161 4520,4920 4717,4838 4881,4722 4910,4718 4929,4724 4943,4735 L 4944,4735 Z"
     id="path799" /><path
     fill="rgb(0,0,0)"
     stroke="none"
     d="M 4945,5110 C 4958,5254 4909,5442 4882,5586 4803,5570 4826,5453 4832,5386 4840,5299 4877,5205 4882,5148 4878,5128 4894,5126 4895,5110 L 4945,5110 Z"
     id="path806" /><path
     fill="rgb(0,0,0)"
     stroke="none"
     d="M 5632,5674 C 5669,5773 5563,5846 5507,5912 5456,5973 5408,6097 5319,6075 5371,5901 5527,5831 5595,5674 5608,5674 5620,5674 5632,5674 Z"
     id="path813" /><path
     fill="rgb(0,0,0)"
     stroke="none"
     d="M 3592,5837 L 3630,5837 C 3672,6004 3719,6231 3742,6375 3660,6378 3647,6248 3630,6163 3608,6051 3581,5927 3592,5837 Z"
     id="path820" /><path
     fill="rgb(0,0,0)"
     stroke="none"
     d="M 4104,5923 C 4010,6000 3894,6055 3804,6136 3797,6022 4013,5898 4104,5923 Z"
     id="path827" /><path
     fill="rgb(0,0,0)"
     stroke="none"
     d="M 5720,6288 C 5767,6297 5751,6244 5770,6225 5814,6234 5779,6263 5770,6288 5875,6358 5969,6559 5921,6701 5784,6658 5853,6410 5720,6363 5637,6350 5589,6302 5520,6275 5474,6266 5450,6306 5420,6275 L 5420,6213 C 5549,6168 5633,6251 5720,6288 Z"
     id="path834" /><path
     fill="rgb(0,0,0)"
     stroke="none"
     d="M 6146,7126 C 6037,7064 6079,6879 6071,6750 6059,6565 6010,6418 5945,6312 5943,6297 5948,6290 5958,6287 5968,6278 5992,6267 5996,6287 6168,6429 6160,6881 6146,7126 Z"
     id="path841" /><path
     fill="rgb(0,0,0)"
     stroke="none"
     d="M 4656,6888 C 4604,6991 4607,7148 4493,7189 4448,7098 4548,6786 4656,6888 Z"
     id="path848" /><path
     fill="rgb(0,0,0)"
     stroke="none"
     d="M 4305,7064 L 4343,7064 C 4345,7154 4395,7367 4330,7403 4269,7349 4289,7153 4305,7065 L 4305,7064 Z"
     id="path855" /><path
     fill="rgb(0,0,0)"
     stroke="none"
     d="M 2240,7503 L 2277,7503 C 2257,7634 2238,7872 2152,7979 2144,7832 2211,7654 2240,7503 Z"
     id="path862" /><path
     fill="rgb(0,0,0)"
     stroke="none"
     d="M 4104,7540 L 4155,7540 C 4194,7597 4203,7804 4130,7828 4046,7811 4102,7623 4105,7540 L 4104,7540 Z"
     id="path869" /><path
     fill="rgb(0,0,0)"
     stroke="none"
     d="M 2465,7653 L 2503,7653 C 2492,7881 2501,8235 2452,8467 2381,8458 2427,8372 2427,8330 2428,8129 2432,7861 2465,7691 2465,7678 2465,7666 2465,7653 Z"
     id="path876" /><path
     fill="rgb(0,0,0)"
     stroke="none"
     d="M 837,9720 L 887,9720 C 893,9787 936,9981 862,10008 814,9976 829,9797 837,9720 Z"
     id="path883" /><path
     fill="rgb(0,0,0)"
     stroke="none"
     d="M 2390,10008 C 2434,10755 2385,11612 2390,12375 2298,12328 2340,12190 2340,12112 2340,11450 2334,10732 2352,10045 2349,10025 2364,10024 2365,10008 L 2390,10008 Z"
     id="path890" /><path
     fill="rgb(0,0,0)"
     stroke="none"
     d="M 6033,10045 C 6069,10198 6012,10463 5971,10622 5968,10694 5984,10786 5895,10772 5917,10567 5918,10236 5996,10045 L 6033,10045 Z"
     id="path897" /><path
     fill="rgb(0,0,0)"
     stroke="none"
     d="M 4242,10658 C 4252,10747 4311,10846 4280,10934 4167,10953 4110,10612 4242,10658 Z"
     id="path904" /><path
     fill="rgb(0,0,0)"
     stroke="none"
     d="M 1526,10783 L 1563,10783 C 1571,10884 1580,11091 1538,11184 1459,11116 1509,10878 1526,10783 Z"
     id="path911" /><path
     fill="rgb(0,0,0)"
     stroke="none"
     d="M 298,10896 C 367,10978 344,11143 349,11297 375,12240 507,13275 449,14228 359,14177 386,13990 386,13852 386,12882 263,11907 261,10934 257,10913 273,10912 273,10896 L 298,10896 Z"
     id="path918" /><path
     fill="rgb(0,0,0)"
     stroke="none"
     d="M 4343,11234 C 4363,11231 4364,11246 4380,11247 4535,11626 4449,11951 4267,12236 4179,12376 4068,12542 3929,12575 3926,12490 4018,12446 4067,12387 4287,12124 4500,11738 4318,11272 4310,11244 4341,11254 4342,11235 L 4343,11234 Z"
     id="path925" /><path
     fill="rgb(0,0,0)"
     stroke="none"
     d="M 3403,12149 C 3363,12246 3321,12343 3228,12387 3190,12311 3291,12114 3403,12149 Z"
     id="path932" /><path
     fill="rgb(0,0,0)"
     stroke="none"
     d="M 4981,12174 C 5092,12197 5047,12483 4994,12537 4895,12498 4960,12252 4981,12174 Z"
     id="path939" /><path
     fill="rgb(0,0,0)"
     stroke="none"
     d="M 3880,12700 C 3744,12764 3708,12929 3580,13000 3553,12869 3726,12733 3830,12650 3862,12651 3878,12668 3880,12700 Z"
     id="path946" /><path
     fill="rgb(0,0,0)"
     stroke="none"
     d="M 2903,12825 C 2979,12861 2902,12964 2878,13013 2819,13136 2749,13262 2703,13401 2681,13466 2697,13569 2615,13589 2592,13335 2768,13025 2903,12825 Z"
     id="path953" /><path
     fill="rgb(0,0,0)"
     stroke="none"
     d="M 4218,13263 L 4243,13263 C 4289,13420 4275,13765 4256,13902 4188,13848 4218,13723 4218,13614 L 4218,13264 4218,13263 Z"
     id="path960" /><path
     fill="rgb(0,0,0)"
     stroke="none"
     d="M 2315,13401 L 2377,13401 C 2349,13611 2381,13881 2240,13977 2249,13819 2325,13621 2315,13401 Z"
     id="path967" /><path
     fill="rgb(0,0,0)"
     stroke="none"
     d="M 3104,13689 C 3078,13787 3164,14019 3079,14090 3006,14020 3028,13806 3041,13689 L 3104,13689 Z"
     id="path974" /><path
     fill="rgb(0,0,0)"
     stroke="none"
     d="M 3091,14266 C 3070,14354 2991,14410 2941,14478 2894,14543 2867,14655 2766,14666 2773,14494 2947,14380 3029,14241 3069,14230 3067,14260 3091,14266 Z"
     id="path981" /><path
     fill="rgb(0,0,0)"
     stroke="none"
     d="M 436,14253 C 502,14296 474,14440 474,14553 474,14665 502,14811 436,14854 382,14835 390,14736 386,14666 380,14539 382,14386 399,14290 395,14270 410,14269 411,14253 L 436,14253 Z"
     id="path988" /><path
     fill="rgb(0,0,0)"
     stroke="none"
     d="M 5532,14453 L 5582,14453 C 5556,14641 5657,14912 5595,15092 5534,15063 5551,14967 5545,14904 5533,14785 5512,14648 5520,14491 5516,14471 5532,14469 5532,14453 Z"
     id="path995" /><path
     fill="rgb(0,0,0)"
     stroke="none"
     d="M 3605,14516 C 3665,14611 3625,14905 3592,15029 3514,14941 3607,14715 3580,14553 3573,14526 3603,14536 3605,14516 Z"
     id="path1002" /><path
     fill="rgb(0,0,0)"
     stroke="none"
     d="M 2002,15556 C 2050,15884 1913,16135 1714,16257 1685,16156 1795,16104 1839,16032 1907,15920 1946,15794 1939,15593 1935,15573 1951,15572 1952,15556 L 2002,15556 Z"
     id="path1009" /><path
     fill="rgb(0,0,0)"
     stroke="none"
     d="M 424,15718 C 504,15734 474,15890 474,15994 473,16095 496,16252 411,16257 327,16162 396,15913 374,15756 378,15739 396,15736 399,15718 407,15719 415,15719 424,15719 L 424,15718 Z"
     id="path1016" /><path
     fill="rgb(0,0,0)"
     stroke="none"
     d="M 2703,15756 C 2713,15762 2723,15769 2741,15768 2706,16638 2673,17644 2465,18386 2436,18489 2436,18616 2352,18687 2281,18621 2365,18476 2390,18386 2474,18081 2538,17725 2578,17334 2629,16823 2622,16283 2678,15781 2681,15767 2703,15772 2703,15756 Z"
     id="path1023" /><path
     fill="rgb(0,0,0)"
     stroke="none"
     d="M 2227,16332 C 2304,16424 2258,16657 2252,16796 2224,17427 2157,18055 2077,18649 1982,18578 2028,18388 2039,18261 2074,17869 2158,17471 2177,17046 2187,16823 2186,16602 2190,16370 2186,16349 2201,16348 2202,16332 2210,16332 2219,16332 2227,16332 Z"
     id="path1030" /><path
     fill="rgb(0,0,0)"
     stroke="none"
     d="M 2139,16370 C 2071,16510 1952,16600 1826,16683 1824,16534 2023,16479 2089,16357 2115,16352 2122,16366 2139,16370 Z"
     id="path1037" /><path
     fill="rgb(0,0,0)"
     stroke="none"
     d="M 1576,16457 C 1492,16682 1287,16786 1213,17021 1318,16990 1402,16813 1538,16896 1550,16958 1459,16917 1438,16946 1344,16996 1227,17161 1125,17021 1202,16777 1377,16630 1513,16445 1542,16441 1561,16447 1576,16457 Z"
     id="path1044" /><path
     fill="rgb(0,0,0)"
     stroke="none"
     d="M 1801,16670 C 1799,16685 1804,16693 1814,16695 1758,16781 1660,16825 1563,16871 1542,16752 1688,16696 1801,16670 Z"
     id="path1051" /><path
     fill="rgb(0,0,0)"
     stroke="none"
     d="M 361,17384 C 396,17595 310,17873 323,18136 333,18322 393,18475 386,18624 277,18589 259,18374 248,18224 229,17953 275,17629 311,17422 307,17402 323,17400 323,17384 336,17385 349,17385 361,17385 L 361,17384 Z"
     id="path1058" /><path
     fill="rgb(0,0,0)"
     stroke="none"
     d="M 4042,17798 C 4099,17977 4046,18258 4055,18474 4057,18537 4106,18631 4030,18662 3935,18613 3974,18330 3979,18211 3986,18060 3969,17932 3992,17810 3995,17796 4017,17802 4017,17785 4032,17783 4039,17788 4042,17798 Z"
     id="path1065" /><path
     fill="rgb(0,0,0)"
     stroke="none"
     d="M 3478,17835 C 3488,17999 3507,18322 3491,18486 3386,18467 3424,18277 3416,18161 3410,18077 3405,17925 3428,17835 L 3479,17835 3478,17835 Z"
     id="path1072" /><path
     fill="rgb(0,0,0)"
     stroke="none"
     d="M 1864,17923 C 1927,17963 1883,18052 1876,18123 1865,18241 1859,18381 1839,18512 1821,18627 1823,18779 1726,18812 1754,18556 1800,18210 1839,17923 1847,17923 1856,17923 1864,17923 Z"
     id="path1079" /><path
     fill="rgb(0,0,0)"
     stroke="none"
     d="M 6609,18612 C 6492,18660 6495,18485 6346,18524 6369,18337 6613,18501 6609,18612 Z"
     id="path1086" /><path
     fill="rgb(0,0,0)"
     stroke="none"
     d="M 4080,18762 C 4046,18896 4121,19095 4030,19188 3920,19157 3986,18840 4004,18737 4048,18727 4057,18751 4080,18762 Z"
     id="path1093" /><path
     fill="rgb(0,0,0)"
     stroke="none"
     d="M 2064,19150 C 2015,19294 1900,19436 1751,19438 1833,19337 1958,19278 2014,19150 L 2064,19150 Z"
     id="path1100" /><path
     fill="rgb(0,0,0)"
     stroke="none"
     d="M 4005,19301 C 3972,19419 3965,19562 3829,19576 3838,19494 3893,19241 4005,19301 Z"
     id="path1107" /><path
     fill="rgb(0,0,0)"
     stroke="none"
     d="M 1689,19438 C 1687,19552 1453,19612 1388,19539 1478,19502 1619,19454 1689,19438 Z"
     id="path1114" /><path
     fill="rgb(0,0,0)"
     stroke="none"
     d="M 5382,19451 C 5323,19581 5227,19738 5069,19727 5131,19606 5268,19559 5319,19426 5360,19415 5358,19445 5382,19451 Z"
     id="path1121" /><path
     fill="rgb(0,0,0)"
     stroke="none"
     d="M 2452,19601 C 2403,19619 2245,19635 2177,19626 2225,19571 2394,19534 2452,19601 Z"
     id="path1128" /><path
     fill="rgb(0,0,0)"
     stroke="none"
     d="M 5658,19651 C 5640,19780 5540,19826 5432,19864 5427,19840 5396,19842 5407,19802 5486,19755 5542,19621 5658,19651 Z"
     id="path1135" /><path
     fill="rgb(0,0,0)"
     stroke="none"
     d="M 2277,19701 C 2210,19753 2044,19886 1964,19802 2054,19767 2181,19647 2277,19701 Z"
     id="path1142" /><path
     fill="rgb(0,0,0)"
     stroke="none"
     d="M 1375,19789 C 1343,19871 1190,19894 1112,19889 1123,19792 1310,19750 1375,19789 Z"
     id="path1149" /><path
     fill="rgb(0,0,0)"
     stroke="none"
     d="M 6522,19802 C 6472,19890 6297,19918 6196,19914 6245,19824 6423,19800 6522,19802 Z"
     id="path1156" /><path
     fill="rgb(0,0,0)"
     stroke="none"
     d="M 5081,19802 C 5096,19801 5104,19804 5106,19814 5191,19946 5379,20039 5595,19965 5589,20065 5459,20067 5394,20065 5251,20059 5106,19946 5069,19852 5064,19826 5078,19819 5082,19802 L 5081,19802 Z"
     id="path1163" /><path
     fill="rgb(0,0,0)"
     stroke="none"
     d="M 6810,19814 C 6917,19832 7075,19799 7073,19927 6987,19904 6890,19893 6810,19864 L 6810,19814 Z"
     id="path1170" /><path
     fill="rgb(0,0,0)"
     stroke="none"
     d="M 4018,19889 C 3921,20045 3661,19975 3467,19989 3318,20000 3175,20115 3079,20027 3095,19942 3219,19968 3292,19952 3345,19940 3401,19905 3454,19902 3507,19899 3566,19926 3617,19927 3766,19930 3900,19841 4018,19889 Z"
     id="path1177" /><path
     fill="rgb(0,0,0)"
     stroke="none"
     d="M 2678,19977 C 2674,20071 2564,20016 2515,20015 2286,20009 1968,20025 1776,20002 1780,19912 1902,19945 1977,19939 2203,19924 2486,19908 2678,19977 Z"
     id="path1184" /><path
     fill="rgb(0,0,0)"
     stroke="none"
     d="M 236,19990 L 236,19952 C 441,20005 763,19964 1012,19977 987,20047 862,20036 774,20040 574,20049 344,20049 236,19989 L 236,19990 Z"
     id="path1191" /><path
     fill="rgb(0,0,0)"
     stroke="none"
     d="M 1526,20002 C 1466,20105 1237,20030 1125,20027 1132,20009 1110,19963 1138,19965 1240,19971 1460,19946 1526,20002 Z"
     id="path1198" /><path
     fill="rgb(0,0,0)"
     stroke="none"
     d="M 7048,20015 C 6990,20108 6797,20077 6647,20077 6337,20077 5964,20095 5745,20002 L 5745,19965 C 5755,19962 5758,19952 5770,19952 6062,19987 6495,20001 6860,19990 6914,19988 7016,19945 7048,20014 L 7048,20015 Z"
     id="path1205" /><path
     fill="rgb(129,212,26)"
     stroke="none"
     d="M 1752,16659 C 1753,16667 1753,16675 1754,16684 1675,16707 1594,16745 1570,16809 1564,16804 1559,16800 1552,16797 1533,16803 1520,16815 1502,16822 1487,16843 1486,16860 1487,16877 1381,16859 1306,16994 1215,17022 L 1215,17019 C 1283,16807 1457,16702 1551,16516 1555,16522 1560,16528 1564,16534 1653,16455 1715,16350 1777,16245 1768,16242 1761,16237 1755,16231 1920,16110 2032,15894 2010,15617 2015,15618 2022,15618 2028,15619 2025,15338 2006,14997 2040,14692 2110,14656 2152,14531 2241,14555 2172,14898 2277,15266 2216,15582 2205,15636 2155,15687 2140,15745 2116,15838 2137,15952 2128,16058 2118,16169 2066,16283 2083,16369 2021,16469 1870,16525 1834,16634 1808,16627 1786,16635 1752,16659 Z M 3005,14281 L 3006,14281 C 2933,14384 2820,14476 2781,14595 L 2780,14594 C 2735,14562 2689,14703 2642,14669 2662,14406 2667,14118 2667,13843 2667,13758 2695,13632 2653,13573 2694,13536 2687,13457 2705,13404 2751,13265 2821,13139 2880,13016 2895,12985 2931,12932 2937,12889 2995,12883 3016,12797 3056,12753 3038,13069 3047,13412 3031,13730 3034,13729 3036,13729 3039,13729 3027,13849 3015,14029 3081,14093 3153,14033 3103,13858 3101,13746 3106,13749 3112,13752 3118,13755 3208,13323 3231,12824 3294,12365 L 3293,12365 C 3288,12363 3284,12361 3280,12358 3328,12318 3360,12259 3387,12197 3405,12208 3423,12215 3444,12214 3473,12478 3473,12769 3506,13029 3544,13046 3597,13047 3619,13016 3626,13001 3624,12990 3617,12979 3702,12912 3745,12802 3830,12735 3863,12904 3893,13196 3845,13342 3831,13383 3755,13457 3707,13517 3610,13637 3528,13698 3431,13793 3387,13836 3366,13900 3331,13930 3304,13954 3258,13959 3231,13980 3122,14067 3068,14179 3005,14281 Z M 4507,3971 C 4513,3970 4517,3970 4522,3969 4462,4083 4468,4283 4481,4430 4478,4432 4474,4433 4470,4434 4468,4445 4470,4453 4473,4458 4426,4516 4346,4541 4294,4593 4287,4179 4259,3841 4332,3482 4321,3485 4314,3485 4309,3482 4386,3449 4477,3377 4534,3303 4605,3470 4494,3746 4507,3971 Z M 4143,3871 C 4095,3818 4033,3753 3984,3698 4061,3690 4130,3664 4178,3615 4190,3689 4141,3800 4143,3871 Z"
     id="path1212" /></g>
</svg>
